<svg id="Groupe_2" data-name="Groupe 2" xmlns="http://www.w3.org/2000/svg" xmlns:xlink="http://www.w3.org/1999/xlink" viewBox="0 0 213.5 286.48"><defs><style>.cls-1,.cls-2,.cls-3,.cls-30,.cls-4,.cls-5,.cls-6,.cls-7,.cls-8{fill:none;}.cls-1,.cls-2,.cls-3,.cls-4,.cls-5,.cls-6,.cls-8{stroke:#3dc1d3;stroke-miterlimit:10;}.cls-2{clip-path:url(#clip-path);}.cls-3{clip-path:url(#clip-path-2);}.cls-4{clip-path:url(#clip-path-3);}.cls-5{clip-path:url(#clip-path-4);}.cls-6{clip-path:url(#clip-path-5);}.cls-30,.cls-7{stroke:#f985de;stroke-linecap:round;stroke-linejoin:round;}.cls-8{clip-path:url(#clip-path-6);}.cls-9{isolation:isolate;}.cls-10{clip-path:url(#clip-path-7);}.cls-11{clip-path:url(#clip-path-8);}.cls-12{clip-path:url(#clip-path-9);}.cls-13{clip-path:url(#clip-path-10);}.cls-14{clip-path:url(#clip-path-11);}.cls-15{clip-path:url(#clip-path-12);}.cls-16{clip-path:url(#clip-path-13);}.cls-17{clip-path:url(#clip-path-14);}.cls-18{clip-path:url(#clip-path-15);}.cls-19{clip-path:url(#clip-path-16);}.cls-20{clip-path:url(#clip-path-17);}.cls-21{clip-path:url(#clip-path-18);}.cls-22{clip-path:url(#clip-path-19);}.cls-23{clip-path:url(#clip-path-20);}.cls-24{clip-path:url(#clip-path-21);}.cls-25{clip-path:url(#clip-path-22);}.cls-26{clip-path:url(#clip-path-23);}.cls-27{clip-path:url(#clip-path-24);}.cls-28{clip-path:url(#clip-path-25);}.cls-29{clip-path:url(#clip-path-26);}.cls-30{stroke-width:0.25px;}.cls-31{clip-path:url(#clip-path-27);}.cls-32{clip-path:url(#clip-path-28);}.cls-33{clip-path:url(#clip-path-29);}.cls-34{clip-path:url(#clip-path-30);}</style><clipPath id="clip-path"><line class="cls-1" x1="476.27" y1="384.94" x2="470.88" y2="385.7"/></clipPath><clipPath id="clip-path-2"><line class="cls-1" x1="507.11" y1="435.76" x2="506.94" y2="525.07"/></clipPath><clipPath id="clip-path-3"><path class="cls-1" d="M492.88,409.59a25.62,25.62,0,0,1,5.24,3.79,28.05,28.05,0,0,1,6.58,9.68,32.16,32.16,0,0,1,2.41,12.7"/></clipPath><clipPath id="clip-path-4"><line class="cls-1" x1="438.89" y1="552.41" x2="453.14" y2="550.41"/></clipPath><clipPath id="clip-path-5"><path class="cls-1" d="M453.14,550.41a31.7,31.7,0,0,0,12.1-4.32,38.5,38.5,0,0,0,9.83-8.51,40.79,40.79,0,0,0,6.62-11.53,37.63,37.63,0,0,0,2.46-13.38"/></clipPath><clipPath id="clip-path-6"><path class="cls-1" d="M505.53,508.35"/></clipPath><clipPath id="clip-path-7" transform="translate(-385.47 -305.2)"><path class="cls-1" d="M524.44,412.69a54.77,54.77,0,0,1,4,21.38l-.16,86.68a63.84,63.84,0,0,1-4.13,22.53A68.87,68.87,0,0,1,513,562.86a64.67,64.67,0,0,1-16.72,14.45,53.66,53.66,0,0,1-20.34,7.27l-14.25,2A45.2,45.2,0,0,1,441.32,585a43.17,43.17,0,0,1-16.68-9.76,46.94,46.94,0,0,1-11.17-16.43,54.66,54.66,0,0,1-4-21.38l.4-216.34,21.38-3L431,411.18a64.35,64.35,0,0,1,17.58-17.1,54,54,0,0,1,22.26-8.38l5.39-.76a45.08,45.08,0,0,1,20.33,1.56,43.31,43.31,0,0,1,16.67,9.75A47.11,47.11,0,0,1,524.44,412.69Zm-17.5,112.38.17-89.31a32.16,32.16,0,0,0-2.41-12.7,28.05,28.05,0,0,0-6.58-9.68,25.73,25.73,0,0,0-9.81-5.74,26.45,26.45,0,0,0-12.08-.93l-14.25,2A31.39,31.39,0,0,0,449.89,413a38.34,38.34,0,0,0-9.84,8.5,41,41,0,0,0-6.62,11.54A37.59,37.59,0,0,0,431,446.46l-.17,89.31a32.29,32.29,0,0,0,2.42,12.69,27.82,27.82,0,0,0,6.58,9.68,25.8,25.8,0,0,0,9.81,5.75,26.7,26.7,0,0,0,12.08.92l14.25-2A31.72,31.72,0,0,0,488,558.49a38.34,38.34,0,0,0,9.83-8.51,40.55,40.55,0,0,0,6.62-11.53,37.41,37.41,0,0,0,2.46-13.38"/></clipPath><clipPath id="clip-path-8" transform="translate(-385.47 -305.2)"><path class="cls-1" d="M524.44,412.69a54.77,54.77,0,0,1,4,21.38"/></clipPath><clipPath id="clip-path-9" transform="translate(-385.47 -305.2)"><line class="cls-8" x1="528.49" y1="434.07" x2="528.33" y2="520.75"/></clipPath><clipPath id="clip-path-10" transform="translate(-385.47 -305.2)"><path class="cls-1" d="M528.33,520.75a63.84,63.84,0,0,1-4.13,22.53A68.87,68.87,0,0,1,513,562.86a64.67,64.67,0,0,1-16.72,14.45,53.66,53.66,0,0,1-20.34,7.27"/></clipPath><clipPath id="clip-path-11" transform="translate(-385.47 -305.2)"><line class="cls-1" x1="475.9" y1="584.58" x2="461.65" y2="586.58"/></clipPath><clipPath id="clip-path-12" transform="translate(-385.47 -305.2)"><path class="cls-1" d="M409.43,537.46a54.66,54.66,0,0,0,4,21.38,46.94,46.94,0,0,0,11.17,16.43,42.43,42.43,0,0,0,8.89,6.44l-22.8-12.4a42.63,42.63,0,0,1-8.88-6.44,46.94,46.94,0,0,1-11.17-16.43,54.81,54.81,0,0,1-4.05-21.38"/></clipPath><clipPath id="clip-path-13" transform="translate(-385.47 -305.2)"><polyline class="cls-1" points="386.63 525.06 387.04 308.72 409.83 321.12 409.43 537.46"/></clipPath><clipPath id="clip-path-14" transform="translate(-385.47 -305.2)"><polygon class="cls-1" points="409.83 321.12 387.04 308.72 408.42 305.72 431.21 318.12 409.83 321.12"/></clipPath><clipPath id="clip-path-15" transform="translate(-385.47 -305.2)"><line class="cls-2" x1="448.09" y1="373.3" x2="453.47" y2="372.55"/></clipPath><clipPath id="clip-path-16" transform="translate(-385.47 -305.2)"><path class="cls-1" d="M490.48,383.85a43.33,43.33,0,0,0-8.89-6.44l22.79,12.4a42.43,42.43,0,0,1,8.89,6.44,47.11,47.11,0,0,1,11.17,16.44"/></clipPath><clipPath id="clip-path-17" transform="translate(-385.47 -305.2)"><path class="cls-1" d="M453.47,372.55a44.59,44.59,0,0,1,28.12,4.86l22.79,12.4a44.58,44.58,0,0,0-28.11-4.87"/></clipPath><clipPath id="clip-path-18" transform="translate(-385.47 -305.2)"><line class="cls-3" x1="484.15" y1="512.67" x2="484.32" y2="423.36"/></clipPath><clipPath id="clip-path-19" transform="translate(-385.47 -305.2)"><path class="cls-1" d="M492.88,409.59a26.34,26.34,0,0,0-16.65-2.88"/></clipPath><clipPath id="clip-path-20" transform="translate(-385.47 -305.2)"><path class="cls-4" d="M484.32,423.36a32.51,32.51,0,0,0-2.41-12.7,32,32,0,0,0-2.18-4.25"/></clipPath><clipPath id="clip-path-21" transform="translate(-385.47 -305.2)"><line class="cls-1" x1="476.23" y1="406.71" x2="461.98" y2="408.71"/></clipPath><clipPath id="clip-path-22" transform="translate(-385.47 -305.2)"><path class="cls-1" d="M462,408.71A31.39,31.39,0,0,0,449.89,413a38.34,38.34,0,0,0-9.84,8.5,41,41,0,0,0-6.62,11.54A37.59,37.59,0,0,0,431,446.46"/></clipPath><clipPath id="clip-path-23" transform="translate(-385.47 -305.2)"><line class="cls-1" x1="430.97" y1="446.46" x2="430.8" y2="535.77"/></clipPath><clipPath id="clip-path-24" transform="translate(-385.47 -305.2)"><line class="cls-5" x1="475.94" y1="562.81" x2="461.69" y2="564.81"/></clipPath><clipPath id="clip-path-25" transform="translate(-385.47 -305.2)"><path class="cls-6" d="M506.94,525.07a37.41,37.41,0,0,1-2.46,13.38A40.55,40.55,0,0,1,497.86,550a38.34,38.34,0,0,1-9.83,8.51,31.72,31.72,0,0,1-12.09,4.32"/></clipPath><clipPath id="clip-path-26" transform="translate(-385.47 -305.2)"><polyline class="cls-7" points="566.32 584.98 566.36 562.62 587.07 559.71"/></clipPath><clipPath id="clip-path-27" transform="translate(-385.47 -305.2)"><polygon class="cls-7" points="598.47 565.91 598.43 588.26 577.71 591.18 577.75 568.82 598.47 565.91"/></clipPath><clipPath id="clip-path-28" transform="translate(-385.47 -305.2)"><polyline class="cls-7" points="587.07 559.71 598.47 565.91 598.43 588.26"/></clipPath><clipPath id="clip-path-29" transform="translate(-385.47 -305.2)"><polygon class="cls-7" points="577.71 591.18 566.32 584.98 566.36 562.62 577.75 568.82 577.71 591.18"/></clipPath><clipPath id="clip-path-30" transform="translate(-385.47 -305.2)"><polygon class="cls-7" points="577.75 568.82 566.36 562.62 587.07 559.71 598.47 565.91 577.75 568.82"/></clipPath></defs><g id="Groupe_1" data-name="Groupe 1"><g class="cls-9"><g class="cls-9"><g class="cls-10"><path class="cls-1" d="M524.44,412.69a54.77,54.77,0,0,1,4,21.38l-.16,86.68a63.84,63.84,0,0,1-4.13,22.53A68.87,68.87,0,0,1,513,562.86a64.67,64.67,0,0,1-16.72,14.45,53.66,53.66,0,0,1-20.34,7.27l-14.25,2A45.2,45.2,0,0,1,441.32,585a43.17,43.17,0,0,1-16.68-9.76,46.94,46.94,0,0,1-11.17-16.43,54.66,54.66,0,0,1-4-21.38l.4-216.34,21.38-3L431,411.18a64.35,64.35,0,0,1,17.58-17.1,54,54,0,0,1,22.26-8.38l5.39-.76a45.08,45.08,0,0,1,20.33,1.56,43.31,43.31,0,0,1,16.67,9.75A47.11,47.11,0,0,1,524.44,412.69Zm-17.5,112.38.17-89.31a32.16,32.16,0,0,0-2.41-12.7,28.05,28.05,0,0,0-6.58-9.68,25.73,25.73,0,0,0-9.81-5.74,26.45,26.45,0,0,0-12.08-.93l-14.25,2A31.39,31.39,0,0,0,449.89,413a38.34,38.34,0,0,0-9.84,8.5,41,41,0,0,0-6.62,11.54A37.59,37.59,0,0,0,431,446.46l-.17,89.31a32.29,32.29,0,0,0,2.42,12.69,27.82,27.82,0,0,0,6.58,9.68,25.8,25.8,0,0,0,9.81,5.75,26.7,26.7,0,0,0,12.08.92l14.25-2A31.72,31.72,0,0,0,488,558.49a38.34,38.34,0,0,0,9.83-8.51,40.55,40.55,0,0,0,6.62-11.53,37.41,37.41,0,0,0,2.46-13.38" transform="translate(-385.47 -305.2)"/></g><path class="cls-1" d="M524.44,412.69a54.77,54.77,0,0,1,4,21.38l-.16,86.68a63.84,63.84,0,0,1-4.13,22.53A68.87,68.87,0,0,1,513,562.86a64.67,64.67,0,0,1-16.72,14.45,53.66,53.66,0,0,1-20.34,7.27l-14.25,2A45.2,45.2,0,0,1,441.32,585a43.17,43.17,0,0,1-16.68-9.76,46.94,46.94,0,0,1-11.17-16.43,54.66,54.66,0,0,1-4-21.38l.4-216.34,21.38-3L431,411.18a64.35,64.35,0,0,1,17.58-17.1,54,54,0,0,1,22.26-8.38l5.39-.76a45.08,45.08,0,0,1,20.33,1.56,43.31,43.31,0,0,1,16.67,9.75A47.11,47.11,0,0,1,524.44,412.69Zm-17.5,112.38.17-89.31a32.16,32.16,0,0,0-2.41-12.7,28.05,28.05,0,0,0-6.58-9.68,25.73,25.73,0,0,0-9.81-5.74,26.45,26.45,0,0,0-12.08-.93l-14.25,2A31.39,31.39,0,0,0,449.89,413a38.34,38.34,0,0,0-9.84,8.5,41,41,0,0,0-6.62,11.54A37.59,37.59,0,0,0,431,446.46l-.17,89.31a32.29,32.29,0,0,0,2.42,12.69,27.82,27.82,0,0,0,6.58,9.68,25.8,25.8,0,0,0,9.81,5.75,26.7,26.7,0,0,0,12.08.92l14.25-2A31.72,31.72,0,0,0,488,558.49a38.34,38.34,0,0,0,9.83-8.51,40.55,40.55,0,0,0,6.62-11.53,37.41,37.41,0,0,0,2.46-13.38" transform="translate(-385.47 -305.2)"/></g><g class="cls-9"><g class="cls-11"><g class="cls-9"><path class="cls-1" d="M528.49,434.07a54.77,54.77,0,0,0-4-21.38" transform="translate(-385.47 -305.2)"/><path class="cls-1" d="M501.65,400.29a54.59,54.59,0,0,1,4,21.38" transform="translate(-385.47 -305.2)"/><path class="cls-1" d="M503.91,407" transform="translate(-385.47 -305.2)"/><path class="cls-1" d="M526.7,419.39" transform="translate(-385.47 -305.2)"/><path class="cls-1" d="M505.25,414.12" transform="translate(-385.47 -305.2)"/><path class="cls-1" d="M528.05,426.52" transform="translate(-385.47 -305.2)"/></g><path class="cls-1" d="M505.69,421.67a54.59,54.59,0,0,0-4-21.38" transform="translate(-385.47 -305.2)"/><path class="cls-1" d="M524.44,412.69a54.77,54.77,0,0,1,4,21.38" transform="translate(-385.47 -305.2)"/></g><path class="cls-1" d="M524.44,412.69a54.77,54.77,0,0,1,4,21.38" transform="translate(-385.47 -305.2)"/></g><g class="cls-9"><g class="cls-12"><line class="cls-1" x1="120.07" y1="203.15" x2="120.23" y2="116.47"/><line class="cls-1" x1="143.02" y1="128.87" x2="142.86" y2="215.55"/></g><path class="cls-1" d="M505.53,508.35" transform="translate(-385.47 -305.2)"/><line class="cls-1" x1="143.02" y1="128.87" x2="142.86" y2="215.55"/></g><g class="cls-9"><g class="cls-13"><g class="cls-9"><path class="cls-1" d="M524.2,543.28a63.84,63.84,0,0,0,4.13-22.53" transform="translate(-385.47 -305.2)"/><path class="cls-1" d="M505.53,508.35a63.79,63.79,0,0,1-4.12,22.53" transform="translate(-385.47 -305.2)"/><path class="cls-1" d="M505.06,516" transform="translate(-385.47 -305.2)"/><path class="cls-1" d="M527.86,528.42" transform="translate(-385.47 -305.2)"/><path class="cls-1" d="M503.69,523.53" transform="translate(-385.47 -305.2)"/><path class="cls-1" d="M526.48,535.93" transform="translate(-385.47 -305.2)"/><path class="cls-1" d="M513,562.86a68.87,68.87,0,0,0,11.24-19.58" transform="translate(-385.47 -305.2)"/><path class="cls-1" d="M501.41,530.88a68.87,68.87,0,0,1-11.24,19.58" transform="translate(-385.47 -305.2)"/><path class="cls-1" d="M498.33,537.89" transform="translate(-385.47 -305.2)"/><path class="cls-1" d="M521.13,550.29" transform="translate(-385.47 -305.2)"/><path class="cls-1" d="M494.59,544.42" transform="translate(-385.47 -305.2)"/><path class="cls-1" d="M517.38,556.82" transform="translate(-385.47 -305.2)"/><path class="cls-1" d="M496.24,577.31A64.67,64.67,0,0,0,513,562.86" transform="translate(-385.47 -305.2)"/><path class="cls-1" d="M490.17,550.46a64.48,64.48,0,0,1-16.72,14.45" transform="translate(-385.47 -305.2)"/><path class="cls-1" d="M485.13,555.93" transform="translate(-385.47 -305.2)"/><path class="cls-1" d="M507.92,568.33" transform="translate(-385.47 -305.2)"/><path class="cls-1" d="M479.56,560.75" transform="translate(-385.47 -305.2)"/><path class="cls-1" d="M502.35,573.15" transform="translate(-385.47 -305.2)"/><path class="cls-1" d="M475.9,584.58a53.66,53.66,0,0,0,20.34-7.27" transform="translate(-385.47 -305.2)"/><path class="cls-1" d="M473.45,564.91a53.48,53.48,0,0,1-20.35,7.27" transform="translate(-385.47 -305.2)"/><path class="cls-1" d="M466.94,568.27" transform="translate(-385.47 -305.2)"/><path class="cls-1" d="M489.73,580.67" transform="translate(-385.47 -305.2)"/><path class="cls-1" d="M460.16,570.7" transform="translate(-385.47 -305.2)"/><path class="cls-1" d="M483,583.1" transform="translate(-385.47 -305.2)"/></g><path class="cls-1" d="M453.1,572.18a53.48,53.48,0,0,0,20.35-7.27,64.48,64.48,0,0,0,16.72-14.45,68.87,68.87,0,0,0,11.24-19.58,63.79,63.79,0,0,0,4.12-22.53" transform="translate(-385.47 -305.2)"/><path class="cls-1" d="M528.33,520.75a63.84,63.84,0,0,1-4.13,22.53A68.87,68.87,0,0,1,513,562.86a64.67,64.67,0,0,1-16.72,14.45,53.66,53.66,0,0,1-20.34,7.27" transform="translate(-385.47 -305.2)"/></g><path class="cls-1" d="M528.33,520.75a63.84,63.84,0,0,1-4.13,22.53A68.87,68.87,0,0,1,513,562.86a64.67,64.67,0,0,1-16.72,14.45,53.66,53.66,0,0,1-20.34,7.27" transform="translate(-385.47 -305.2)"/></g><g class="cls-9"><g class="cls-14"><line class="cls-1" x1="53.39" y1="268.98" x2="67.64" y2="266.98"/><line class="cls-1" x1="90.43" y1="279.38" x2="76.18" y2="281.38"/></g><line class="cls-1" x1="90.43" y1="279.38" x2="76.18" y2="281.38"/></g><g class="cls-9"><g class="cls-15"><g class="cls-9"><path class="cls-1" d="M401.85,562.87" transform="translate(-385.47 -305.2)"/><path class="cls-1" d="M418.52,572.63" transform="translate(-385.47 -305.2)"/><path class="cls-1" d="M424.64,575.27A43.17,43.17,0,0,0,441.32,585" transform="translate(-385.47 -305.2)"/><line class="cls-1" x1="44.19" y1="274.13" x2="21.4" y2="261.73"/><path class="cls-1" d="M397.45,558.07" transform="translate(-385.47 -305.2)"/><path class="cls-1" d="M420.24,570.47" transform="translate(-385.47 -305.2)"/><path class="cls-1" d="M393.72,552.6" transform="translate(-385.47 -305.2)"/><path class="cls-1" d="M416.52,565" transform="translate(-385.47 -305.2)"/><path class="cls-1" d="M409.43,537.46a54.66,54.66,0,0,0,4,21.38" transform="translate(-385.47 -305.2)"/><path class="cls-1" d="M390.68,546.44a54.81,54.81,0,0,1-4.05-21.38" transform="translate(-385.47 -305.2)"/><path class="cls-1" d="M388.42,539.73" transform="translate(-385.47 -305.2)"/><path class="cls-1" d="M411.21,552.13" transform="translate(-385.47 -305.2)"/><path class="cls-1" d="M387.07,532.61" transform="translate(-385.47 -305.2)"/><path class="cls-1" d="M409.87,545" transform="translate(-385.47 -305.2)"/></g><path class="cls-1" d="M409.43,537.46a54.66,54.66,0,0,0,4,21.38,46.94,46.94,0,0,0,11.17,16.43,42.43,42.43,0,0,0,8.89,6.44l-22.8-12.4a42.63,42.63,0,0,1-8.88-6.44,46.94,46.94,0,0,1-11.17-16.43,54.81,54.81,0,0,1-4.05-21.38" transform="translate(-385.47 -305.2)"/></g><path class="cls-1" d="M409.43,537.46a54.66,54.66,0,0,0,4,21.38,46.94,46.94,0,0,0,11.17,16.43,42.43,42.43,0,0,0,8.89,6.44l-22.8-12.4a42.63,42.63,0,0,1-8.88-6.44,46.94,46.94,0,0,1-11.17-16.43,54.81,54.81,0,0,1-4.05-21.38" transform="translate(-385.47 -305.2)"/></g><g class="cls-9"><g class="cls-9"><path class="cls-1" d="M431.8,574.68" transform="translate(-385.47 -305.2)"/><path class="cls-1" d="M454.6,587.08" transform="translate(-385.47 -305.2)"/><path class="cls-1" d="M425,574.17" transform="translate(-385.47 -305.2)"/><path class="cls-1" d="M447.82,586.56" transform="translate(-385.47 -305.2)"/><line class="cls-1" x1="49.75" y1="277.38" x2="26.96" y2="264.99"/></g></g><g class="cls-9"><g class="cls-16"><polyline class="cls-1" points="1.17 219.86 1.57 3.52 24.36 15.92 23.96 232.26"/></g><polyline class="cls-1" points="1.17 219.86 1.57 3.52 24.36 15.92 23.96 232.26"/></g><g class="cls-9"><g class="cls-17"><polygon class="cls-1" points="24.36 15.92 1.57 3.52 22.95 0.52 45.74 12.92 24.36 15.92"/></g><polygon class="cls-1" points="24.36 15.92 1.57 3.52 22.95 0.52 45.74 12.92 24.36 15.92"/></g><g class="cls-9"><path class="cls-1" d="M409.68,399.57" transform="translate(-385.47 -305.2)"/><polyline class="cls-1" points="22.95 0.52 45.74 12.92 45.57 105.98"/></g><g class="cls-9"><g class="cls-9"><path class="cls-1" d="M413.45,392.26" transform="translate(-385.47 -305.2)"/><path class="cls-1" d="M436.24,404.66" transform="translate(-385.47 -305.2)"/><path class="cls-1" d="M442.1,399" transform="translate(-385.47 -305.2)"/><path class="cls-1" d="M470.88,385.7a54,54,0,0,0-22.26,8.38" transform="translate(-385.47 -305.2)"/><path class="cls-1" d="M431.21,378.57a53.82,53.82,0,0,1,16.88-5.27" transform="translate(-385.47 -305.2)"/><path class="cls-1" d="M432.86,377.77" transform="translate(-385.47 -305.2)"/><path class="cls-1" d="M455.65,390.17" transform="translate(-385.47 -305.2)"/><path class="cls-1" d="M440.28,375" transform="translate(-385.47 -305.2)"/><path class="cls-1" d="M463.08,387.38" transform="translate(-385.47 -305.2)"/></g></g><g class="cls-9"><g class="cls-18"><line class="cls-1" x1="90.8" y1="79.74" x2="85.42" y2="80.5"/><line class="cls-1" x1="62.62" y1="68.1" x2="68.01" y2="67.35"/></g><line class="cls-1" x1="90.8" y1="79.74" x2="85.42" y2="80.5"/><line class="cls-1" x1="62.62" y1="68.1" x2="68.01" y2="67.35"/></g><g class="cls-9"><g class="cls-19"><g class="cls-9"><path class="cls-1" d="M496.6,386.5l-22.8-12.4a43.28,43.28,0,0,1,16.68,9.75l22.79,12.4A43.31,43.31,0,0,0,496.6,386.5Z" transform="translate(-385.47 -305.2)"/><line class="cls-1" x1="122.79" y1="86.99" x2="99.99" y2="74.59"/><path class="cls-1" d="M494.88,388.65" transform="translate(-385.47 -305.2)"/><path class="cls-1" d="M517.67,401.05" transform="translate(-385.47 -305.2)"/><path class="cls-1" d="M498.6,394.13" transform="translate(-385.47 -305.2)"/><path class="cls-1" d="M521.39,406.53" transform="translate(-385.47 -305.2)"/></g><path class="cls-1" d="M490.48,383.85a43.33,43.33,0,0,0-8.89-6.44l22.79,12.4a42.43,42.43,0,0,1,8.89,6.44,47.11,47.11,0,0,1,11.17,16.44" transform="translate(-385.47 -305.2)"/></g><path class="cls-1" d="M490.48,383.85a43.33,43.33,0,0,0-8.89-6.44l22.79,12.4a42.43,42.43,0,0,1,8.89,6.44,47.11,47.11,0,0,1,11.17,16.44" transform="translate(-385.47 -305.2)"/></g><g class="cls-9"><g class="cls-20"><g class="cls-9"><path class="cls-1" d="M453.47,372.55a45.06,45.06,0,0,1,20.33,1.55l22.8,12.4a45.08,45.08,0,0,0-20.33-1.56" transform="translate(-385.47 -305.2)"/><path class="cls-1" d="M460.52,372" transform="translate(-385.47 -305.2)"/><path class="cls-1" d="M483.32,384.44" transform="translate(-385.47 -305.2)"/><path class="cls-1" d="M467.3,372.56" transform="translate(-385.47 -305.2)"/><path class="cls-1" d="M490.1,385" transform="translate(-385.47 -305.2)"/><path class="cls-1" d="M473.8,374.1a43.28,43.28,0,0,1,16.68,9.75l22.79,12.4a43.31,43.31,0,0,0-16.67-9.75" transform="translate(-385.47 -305.2)"/><line class="cls-1" x1="117.23" y1="83.74" x2="94.44" y2="71.34"/></g><path class="cls-1" d="M453.47,372.55a44.59,44.59,0,0,1,28.12,4.86l22.79,12.4a44.58,44.58,0,0,0-28.11-4.87" transform="translate(-385.47 -305.2)"/></g><path class="cls-1" d="M453.47,372.55a44.59,44.59,0,0,1,28.12,4.86l22.79,12.4a44.58,44.58,0,0,0-28.11-4.87" transform="translate(-385.47 -305.2)"/></g><g class="cls-9"><g class="cls-21"><line class="cls-1" x1="121.64" y1="130.56" x2="121.48" y2="219.87"/><line class="cls-1" x1="98.68" y1="207.47" x2="98.85" y2="118.16"/></g><line class="cls-1" x1="121.64" y1="130.56" x2="121.48" y2="219.87"/><line class="cls-1" x1="98.68" y1="207.47" x2="98.85" y2="118.16"/></g><g class="cls-9"><g class="cls-22"><g class="cls-9"><path class="cls-1" d="M475.32,401" transform="translate(-385.47 -305.2)"/><path class="cls-1" d="M488.31,407.64a25.73,25.73,0,0,1,9.81,5.74" transform="translate(-385.47 -305.2)"/><path class="cls-1" d="M465.52,395.24" transform="translate(-385.47 -305.2)"/><path class="cls-1" d="M491.91,409.09" transform="translate(-385.47 -305.2)"/><path class="cls-1" d="M465.52,395.24a26.48,26.48,0,0,0-12.09-.93" transform="translate(-385.47 -305.2)"/><path class="cls-1" d="M476.23,406.71a26.45,26.45,0,0,1,12.08.93" transform="translate(-385.47 -305.2)"/><path class="cls-1" d="M461.66,394.32" transform="translate(-385.47 -305.2)"/><path class="cls-1" d="M484.45,406.72" transform="translate(-385.47 -305.2)"/><path class="cls-1" d="M457.63,394" transform="translate(-385.47 -305.2)"/><path class="cls-1" d="M480.43,406.41" transform="translate(-385.47 -305.2)"/></g><path class="cls-1" d="M492.88,409.59a26.34,26.34,0,0,0-16.65-2.88" transform="translate(-385.47 -305.2)"/><path class="cls-1" d="M453.43,394.31a26.48,26.48,0,0,1,12.09.93" transform="translate(-385.47 -305.2)"/></g><path class="cls-1" d="M492.88,409.59a26.34,26.34,0,0,0-16.65-2.88" transform="translate(-385.47 -305.2)"/></g><g class="cls-9"><g class="cls-23"><g class="cls-9"><path class="cls-1" d="M504.7,423.06a32.16,32.16,0,0,1,2.41,12.7" transform="translate(-385.47 -305.2)"/><path class="cls-1" d="M484.32,423.36a32.51,32.51,0,0,0-2.41-12.7" transform="translate(-385.47 -305.2)"/><path class="cls-1" d="M484.05,418.86" transform="translate(-385.47 -305.2)"/><path class="cls-1" d="M506.85,431.26" transform="translate(-385.47 -305.2)"/><path class="cls-1" d="M483.25,414.63" transform="translate(-385.47 -305.2)"/><path class="cls-1" d="M506,427" transform="translate(-385.47 -305.2)"/><path class="cls-1" d="M481.91,410.66a28.17,28.17,0,0,0-6.59-9.68l22.8,12.4a28.05,28.05,0,0,1,6.58,9.68" transform="translate(-385.47 -305.2)"/><path class="cls-1" d="M480.1,407" transform="translate(-385.47 -305.2)"/><path class="cls-1" d="M502.89,419.43" transform="translate(-385.47 -305.2)"/><path class="cls-1" d="M477.91,403.8" transform="translate(-385.47 -305.2)"/><path class="cls-1" d="M500.7,416.2" transform="translate(-385.47 -305.2)"/><path class="cls-1" d="M488.31,407.64a25.73,25.73,0,0,1,9.81,5.74L475.32,401" transform="translate(-385.47 -305.2)"/><path class="cls-1" d="M465.52,395.24" transform="translate(-385.47 -305.2)"/><line class="cls-1" x1="109.71" y1="105.8" x2="86.91" y2="93.4"/></g><path class="cls-1" d="M492.88,409.59a25.62,25.62,0,0,1,5.24,3.79,28.05,28.05,0,0,1,6.58,9.68,32.16,32.16,0,0,1,2.41,12.7" transform="translate(-385.47 -305.2)"/><path class="cls-1" d="M484.32,423.36a32.51,32.51,0,0,0-2.41-12.7,28.17,28.17,0,0,0-6.59-9.68" transform="translate(-385.47 -305.2)"/></g><path class="cls-1" d="M492.88,409.59a25.62,25.62,0,0,1,5.24,3.79,28.05,28.05,0,0,1,6.58,9.68,32.16,32.16,0,0,1,2.41,12.7" transform="translate(-385.47 -305.2)"/><path class="cls-1" d="M484.32,423.36a32.51,32.51,0,0,0-2.41-12.7,32,32,0,0,0-2.18-4.25" transform="translate(-385.47 -305.2)"/></g><g class="cls-9"><g class="cls-24"><line class="cls-1" x1="90.76" y1="101.51" x2="76.51" y2="103.51"/><line class="cls-1" x1="53.72" y1="91.11" x2="67.97" y2="89.11"/></g><line class="cls-1" x1="90.76" y1="101.51" x2="76.51" y2="103.51"/></g><g class="cls-9"><g class="cls-25"><g class="cls-9"><path class="cls-1" d="M449.89,413A31.39,31.39,0,0,1,462,408.71" transform="translate(-385.47 -305.2)"/><path class="cls-1" d="M439.18,396.31a31.41,31.41,0,0,0-12.08,4.33" transform="translate(-385.47 -305.2)"/><path class="cls-1" d="M435,397.19" transform="translate(-385.47 -305.2)"/><path class="cls-1" d="M457.77,409.59" transform="translate(-385.47 -305.2)"/><path class="cls-1" d="M431,398.63" transform="translate(-385.47 -305.2)"/><path class="cls-1" d="M453.75,411" transform="translate(-385.47 -305.2)"/><path class="cls-1" d="M440.05,421.54a38.34,38.34,0,0,1,9.84-8.5" transform="translate(-385.47 -305.2)"/><path class="cls-1" d="M427.1,400.64a38.18,38.18,0,0,0-9.84,8.5" transform="translate(-385.47 -305.2)"/><path class="cls-1" d="M423.49,403.1" transform="translate(-385.47 -305.2)"/><path class="cls-1" d="M446.28,415.5" transform="translate(-385.47 -305.2)"/><path class="cls-1" d="M420.21,405.94" transform="translate(-385.47 -305.2)"/><path class="cls-1" d="M443,418.34" transform="translate(-385.47 -305.2)"/><path class="cls-1" d="M433.43,433.08a41,41,0,0,1,6.62-11.54" transform="translate(-385.47 -305.2)"/><path class="cls-1" d="M417.26,409.14a40.74,40.74,0,0,0-6.62,11.54" transform="translate(-385.47 -305.2)"/><path class="cls-1" d="M414.66,412.69" transform="translate(-385.47 -305.2)"/><path class="cls-1" d="M437.46,425.09" transform="translate(-385.47 -305.2)"/><path class="cls-1" d="M412.46,416.54" transform="translate(-385.47 -305.2)"/><path class="cls-1" d="M435.25,428.93" transform="translate(-385.47 -305.2)"/><path class="cls-1" d="M431,446.46a37.59,37.59,0,0,1,2.46-13.38" transform="translate(-385.47 -305.2)"/><path class="cls-1" d="M410.64,420.68a37.37,37.37,0,0,0-2.46,13.38" transform="translate(-385.47 -305.2)"/><path class="cls-1" d="M409.27,425" transform="translate(-385.47 -305.2)"/><path class="cls-1" d="M432.07,437.43" transform="translate(-385.47 -305.2)"/><path class="cls-1" d="M408.46,429.49" transform="translate(-385.47 -305.2)"/><path class="cls-1" d="M431.25,441.89" transform="translate(-385.47 -305.2)"/></g><path class="cls-1" d="M408.18,434.06a37.37,37.37,0,0,1,2.46-13.38,40.74,40.74,0,0,1,6.62-11.54,38.18,38.18,0,0,1,9.84-8.5,31.41,31.41,0,0,1,12.08-4.33" transform="translate(-385.47 -305.2)"/><path class="cls-1" d="M462,408.71A31.39,31.39,0,0,0,449.89,413a38.34,38.34,0,0,0-9.84,8.5,41,41,0,0,0-6.62,11.54A37.59,37.59,0,0,0,431,446.46" transform="translate(-385.47 -305.2)"/></g><path class="cls-1" d="M462,408.71A31.39,31.39,0,0,0,449.89,413a38.34,38.34,0,0,0-9.84,8.5,41,41,0,0,0-6.62,11.54A37.59,37.59,0,0,0,431,446.46" transform="translate(-385.47 -305.2)"/></g><g class="cls-9"><g class="cls-26"><line class="cls-1" x1="22.54" y1="218.17" x2="22.71" y2="128.86"/><line class="cls-1" x1="45.5" y1="141.26" x2="45.34" y2="230.57"/></g><line class="cls-1" x1="45.5" y1="141.26" x2="45.34" y2="230.57"/></g><g class="cls-9"><g class="cls-9"><path class="cls-1" d="M435.39,552.7a26.19,26.19,0,0,0,3.5-.29" transform="translate(-385.47 -305.2)"/><path class="cls-1" d="M461.69,564.81a26.7,26.7,0,0,1-12.08-.92" transform="translate(-385.47 -305.2)"/><path class="cls-1" d="M453.46,564.8" transform="translate(-385.47 -305.2)"/><path class="cls-1" d="M434.69,552.71" transform="translate(-385.47 -305.2)"/><path class="cls-1" d="M457.48,565.11" transform="translate(-385.47 -305.2)"/></g></g><g class="cls-9"><g class="cls-9"><path class="cls-1" d="M433.22,548.46a32.29,32.29,0,0,1-2.42-12.69" transform="translate(-385.47 -305.2)"/><path class="cls-1" d="M408.27,527.86" transform="translate(-385.47 -305.2)"/><path class="cls-1" d="M431.07,540.26" transform="translate(-385.47 -305.2)"/><path class="cls-1" d="M409.08,532.1" transform="translate(-385.47 -305.2)"/><path class="cls-1" d="M431.87,544.5" transform="translate(-385.47 -305.2)"/><path class="cls-1" d="M435,552.1" transform="translate(-385.47 -305.2)"/><path class="cls-1" d="M437.21,555.32" transform="translate(-385.47 -305.2)"/></g></g><g class="cls-9"><g class="cls-27"><line class="cls-1" x1="53.43" y1="247.21" x2="67.68" y2="245.21"/><line class="cls-1" x1="90.47" y1="257.61" x2="76.22" y2="259.61"/></g><line class="cls-1" x1="53.43" y1="247.21" x2="67.68" y2="245.21"/><line class="cls-1" x1="90.47" y1="257.61" x2="76.22" y2="259.61"/></g><g class="cls-9"><g class="cls-28"><g class="cls-9"><path class="cls-1" d="M453.14,550.41a31.7,31.7,0,0,0,12.1-4.32" transform="translate(-385.47 -305.2)"/><path class="cls-1" d="M488,558.49a31.72,31.72,0,0,1-12.09,4.32" transform="translate(-385.47 -305.2)"/><path class="cls-1" d="M457.34,549.53" transform="translate(-385.47 -305.2)"/><path class="cls-1" d="M480.14,561.93" transform="translate(-385.47 -305.2)"/><path class="cls-1" d="M461.38,548.09" transform="translate(-385.47 -305.2)"/><path class="cls-1" d="M484.17,560.49" transform="translate(-385.47 -305.2)"/><path class="cls-1" d="M465.24,546.09a38.5,38.5,0,0,0,9.83-8.51" transform="translate(-385.47 -305.2)"/><path class="cls-1" d="M497.86,550a38.34,38.34,0,0,1-9.83,8.51" transform="translate(-385.47 -305.2)"/><path class="cls-1" d="M468.84,543.62" transform="translate(-385.47 -305.2)"/><path class="cls-1" d="M491.63,556" transform="translate(-385.47 -305.2)"/><path class="cls-1" d="M472.12,540.78" transform="translate(-385.47 -305.2)"/><path class="cls-1" d="M494.91,553.18" transform="translate(-385.47 -305.2)"/><path class="cls-1" d="M475.07,537.58a40.79,40.79,0,0,0,6.62-11.53" transform="translate(-385.47 -305.2)"/><path class="cls-1" d="M504.48,538.45A40.55,40.55,0,0,1,497.86,550" transform="translate(-385.47 -305.2)"/><path class="cls-1" d="M477.66,534" transform="translate(-385.47 -305.2)"/><path class="cls-1" d="M500.46,546.43" transform="translate(-385.47 -305.2)"/><path class="cls-1" d="M479.87,530.19" transform="translate(-385.47 -305.2)"/><path class="cls-1" d="M502.66,542.59" transform="translate(-385.47 -305.2)"/><path class="cls-1" d="M481.69,526.05a37.63,37.63,0,0,0,2.46-13.38" transform="translate(-385.47 -305.2)"/><path class="cls-1" d="M506.94,525.07a37.41,37.41,0,0,1-2.46,13.38" transform="translate(-385.47 -305.2)"/><path class="cls-1" d="M483.05,521.7" transform="translate(-385.47 -305.2)"/><path class="cls-1" d="M505.85,534.1" transform="translate(-385.47 -305.2)"/><path class="cls-1" d="M483.87,517.24" transform="translate(-385.47 -305.2)"/><path class="cls-1" d="M506.66,529.64" transform="translate(-385.47 -305.2)"/></g><path class="cls-1" d="M453.14,550.41a31.7,31.7,0,0,0,12.1-4.32,38.5,38.5,0,0,0,9.83-8.51,40.79,40.79,0,0,0,6.62-11.53,37.63,37.63,0,0,0,2.46-13.38" transform="translate(-385.47 -305.2)"/><path class="cls-1" d="M506.94,525.07a37.41,37.41,0,0,1-2.46,13.38A40.55,40.55,0,0,1,497.86,550a38.34,38.34,0,0,1-9.83,8.51,31.72,31.72,0,0,1-12.09,4.32" transform="translate(-385.47 -305.2)"/></g><path class="cls-1" d="M453.14,550.41a31.7,31.7,0,0,0,12.1-4.32,38.5,38.5,0,0,0,9.83-8.51,40.79,40.79,0,0,0,6.62-11.53,37.63,37.63,0,0,0,2.46-13.38" transform="translate(-385.47 -305.2)"/><path class="cls-1" d="M506.94,525.07a37.41,37.41,0,0,1-2.46,13.38A40.55,40.55,0,0,1,497.86,550a38.34,38.34,0,0,1-9.83,8.51,31.72,31.72,0,0,1-12.09,4.32" transform="translate(-385.47 -305.2)"/></g></g><g class="cls-9"><g class="cls-9"><g class="cls-29"><polyline class="cls-30" points="180.85 279.78 180.89 257.42 201.61 254.51"/></g><polyline class="cls-7" points="180.85 279.78 180.89 257.42 201.61 254.51"/></g><g class="cls-9"><g class="cls-31"><polygon class="cls-30" points="213 260.71 212.96 283.06 192.25 285.98 192.29 263.62 213 260.71"/></g><polygon class="cls-7" points="213 260.71 212.96 283.06 192.25 285.98 192.29 263.62 213 260.71"/></g><g class="cls-9"><g class="cls-32"><polyline class="cls-30" points="201.61 254.51 213 260.71 212.96 283.06"/></g><polyline class="cls-7" points="201.61 254.51 213 260.71 212.96 283.06"/></g><g class="cls-9"><polyline class="cls-7" points="212.96 283.06 192.25 285.98 180.85 279.78"/></g><g class="cls-9"><g class="cls-33"><polygon class="cls-30" points="192.25 285.98 180.85 279.78 180.89 257.42 192.29 263.62 192.25 285.98"/></g><polygon class="cls-7" points="192.25 285.98 180.85 279.78 180.89 257.42 192.29 263.62 192.25 285.98"/></g><g class="cls-9"><g class="cls-34"><polygon class="cls-30" points="192.29 263.62 180.89 257.42 201.61 254.51 213 260.71 192.29 263.62"/></g><polygon class="cls-7" points="192.29 263.62 180.89 257.42 201.61 254.51 213 260.71 192.29 263.62"/></g></g></g></svg>