<svg width="391" height="780" viewBox="0 0 391 780" fill="none" xmlns="http://www.w3.org/2000/svg">
<path fill-rule="evenodd" clip-rule="evenodd" d="M91.4164 271.171C85.0548 278.609 85.6172 280.678 89.0066 288.189C96.4949 305.615 107.232 323.331 119.421 339.49C118.616 303.236 117.924 266.784 116.734 230.199C109.487 244.335 101.769 257.104 91.4164 271.171M90.2162 719.248C86.2119 718.861 58.0297 719.902 65.5719 711.687C63.2438 706.634 69.7479 702.371 73.7558 698.527C77.5057 694.95 81.2013 690.976 85.052 686.378C88.6378 682.115 92.6801 677.076 95.2935 671.196C95.872 670.274 96.4595 669.629 97.0414 669.276L97.377 669.073L97.5859 668.741C99.7915 665.222 101.613 661.585 103.617 658C98.7152 656.23 94.2618 654.452 88.71 651.995C96.5438 605.872 108.285 560.936 115.876 514.678C120.497 474.424 122.977 433.791 133.551 394.147L134.903 394.251L135.657 391.653C134.547 391.625 132.297 391.55 131.183 391.506L131.444 392.835C126.403 392.252 121.464 390.816 116.564 389.598C114.063 389.256 111.556 387.468 112.456 384.488C112.745 380.164 113.64 375.947 114.061 371.624C112.466 370.536 110.821 369.293 109.245 368.02C105.078 369.984 100.042 376.328 95.4856 374.714C84.8373 360.424 75.9008 343.247 67.8138 329.524C48.2815 297.788 42.0821 277.95 62.2271 244.859C79.6439 217.138 98.4312 173.077 133.346 166.119C137.266 165.388 141.374 165.357 145.141 163.571C145.335 161.011 146.614 159.54 147.551 159.519C149.826 159.02 152.324 158.216 154.546 158.196C155.329 157.869 156.285 158.138 157.038 158.285C159.277 153.792 159.077 148.055 161.53 143.843C161.62 140.651 162.592 137.125 172.431 136.483C179.128 135.925 188.613 135.386 193.966 138.312C197.712 141.327 197.75 148.081 197.281 152.84C196.765 156.335 196.995 160.4 199.733 164.505C207.536 162.097 212.977 167.188 217.862 176.684C238.309 179.468 242.718 181.048 250.651 201.298C254.434 210.079 258.374 219.461 261.323 229.075C265.272 240.827 265.619 253.129 269.459 264.964C279.888 291.049 290.493 307.882 293.833 338.25C295.463 351.658 294.526 358.306 292.977 360.32C288.569 359.046 282.884 358.071 278.255 357.528L283.208 361.294C279.011 380.32 291.099 434.579 258.324 430.411C258.033 429.702 258.568 425.807 258.708 424.191C257.812 424.254 256.155 424.313 255.273 424.202C253.71 428.711 251.363 432.762 249.882 437.349C249.15 440.144 248.224 442.957 247.319 445.675C226.679 515.175 222.591 582.082 231.802 651.855L231.386 652.006L231.217 652.306L230.964 652.401C230.314 653.269 229.393 653.306 227.923 653.309C218.895 653.626 210.962 654.033 203.606 654.238C204.387 658.144 203.887 662.255 203.543 666.228C207.824 665.927 211.752 667.664 215.665 669.751C223.143 673.421 230.59 677.276 237.831 681.49C245.019 686.089 256.643 690.022 250.872 698.288L252.541 698.943C252.597 698.965 252.633 698.984 252.654 698.997C252.851 699.7 250.59 702.606 249.921 702.574C234.113 703.312 220.632 699.621 200.412 695.755C195.783 694.076 172.467 691.22 172.369 686.812C172.443 685.438 173.863 685.532 174.854 685.36C171.884 670.362 181.925 669.151 183.363 655.542C181.375 655.921 179.225 656.245 177.189 655.687C175.402 626.645 178.273 596.916 175.098 567.59L171.871 567.233C161.023 599.144 149.775 631.794 141.136 664.94C140.972 665.661 140.164 665.168 139.795 664.905C134.149 664.771 128.501 664.168 122.965 663.218C122.832 666.478 122.692 669.798 122.554 673.055L123.408 673.513C123.958 674.279 123.726 677.864 123.627 679.407C123.526 680.985 123.443 682.127 123.583 683.197C125.363 686.707 119.275 694.313 116.054 698.543C109.038 707.622 103.226 721.068 90.2162 719.248" fill="white"/>
<path fill-rule="evenodd" clip-rule="evenodd" d="M159.873 143.944C161.784 142.65 159.062 153.875 159.058 154.955L159.01 155.19C158.533 157.477 157.694 160.137 155.764 161.603C156.654 168.88 157.762 176.134 159.127 183.335L159.929 183.44C171.832 185.015 183.813 187.182 195.916 186.053C202.436 186.104 206.753 181.649 209.382 176.122C209.204 175.471 209.026 174.821 208.843 174.17C200.562 169.106 194.292 158.828 198.023 149.127C198.182 148.712 198.676 148.684 198.93 148.9C198.971 148.903 199.009 148.937 199.006 148.982L198.873 151.034C198.62 155.115 198.536 159.333 200.747 163.004C209.757 160.952 215.359 168.454 219.126 175.554L221.832 175.954C232.186 177.49 242.171 179.308 247.283 189.9L247.983 191.387C255.127 206.608 261.784 222.259 265.681 238.648C267.643 247.368 268.353 256.353 271.231 264.857C277.206 280.648 285.627 295.488 290.192 311.837C293.025 317.736 300.998 362.139 293.133 362.477C290.304 361.63 287.423 360.945 284.512 360.459C284.961 360.801 285.124 361.382 285.039 361.974C284.023 369.091 283.946 376.301 283.951 383.478C284.488 400.86 284.007 438.254 257.794 432.252C255.88 431.549 257.123 428.485 257.046 426.344C256.896 426.351 256.744 426.348 256.592 426.339C255.088 430.394 252.977 434.137 251.655 438.258C250.534 441.799 249.75 445.608 248.188 448.999C231.638 507.776 224.805 569.597 231.276 630.433C231.639 634.076 232.048 637.714 232.504 641.345C232.44 643.671 235.154 653.034 232.722 653.759C232.628 653.943 232.302 654.154 232.107 654.219C230.639 655.802 228.197 655.215 226.258 655.425C219.406 655.73 212.556 656.011 205.701 656.238C206.111 659.143 205.78 662.091 205.537 664.991C210.536 665.033 215.13 668.071 219.551 670.134C226.118 673.369 232.577 676.827 238.914 680.494C244.765 684.583 257.836 688.531 253.339 697.803C256.692 699.162 252.032 704.845 249.484 704.909C232.899 704.826 216.42 701.069 200.212 697.771C191.003 695.34 180.955 694.417 172.436 690.226C170.017 689.133 170.524 684.779 173.184 684.374C171.209 669.857 179.224 670.057 181.482 657.962C180.169 658.176 178.72 658.055 177.404 657.788C174.357 660.603 175.476 638.451 175.062 636.287C174.979 613.572 176.058 590.808 173.635 568.17L169.517 580.279C159.917 608.539 150.461 636.871 142.935 665.762C142.483 667.506 140.65 667.715 139.479 666.954C134.537 666.809 129.614 666.345 124.738 665.558C124.643 667.868 124.546 670.179 124.449 672.49C126.552 673.621 125.128 680.753 125.396 683.165C127.686 688.377 118.416 698.526 115.412 702.804C110.004 710.35 104.631 720.911 94.1714 721.262L93.8529 721.27C86.0447 721.46 78.1662 721.004 70.4338 719.89L69.4928 719.736C67.2878 719.368 64.8467 718.83 63.5775 716.87C62.49 715.192 62.623 713.026 63.9432 711.744C62.1996 705.424 68.987 701.597 72.7781 697.749C79.8598 690.924 86.2964 683.419 91.8627 675.313L92.1824 674.556C93.2142 672.125 94.4469 669.426 96.3677 668.262C98.1992 665.357 99.7654 662.299 101.419 659.296C96.902 657.639 92.4541 655.788 88.0555 653.84C87.1803 653.45 86.9018 652.314 87.0548 651.468L87.0659 651.411C95.6528 606.867 105.948 562.641 113.955 517.996C119.069 476.85 121.166 435.181 131.918 394.94C126.701 394.398 121.51 392.901 116.391 391.621C112.287 390.749 110.212 388.666 111.021 384.324C111.299 380.465 112.073 376.668 112.491 372.824C111.398 372.061 110.332 371.258 109.294 370.433C107.371 371.867 105.385 373.218 103.345 374.478C98.4606 377.992 94.6903 378.54 91.6727 372.779C82.9331 358.987 74.5049 344.993 66.5509 330.734C59.1728 317.055 50.029 303.404 48.1561 287.654C45.4357 259.31 78.7262 213.952 95.4034 190.916C104.6 179.821 115.801 168.402 130.367 165.175C134.847 164.512 139.571 164.421 143.842 162.798C144.189 160.724 145.164 158.814 147.366 158.306C149.683 157.794 152.167 157.004 154.501 156.946C155.028 156.797 155.65 156.703 156.208 156.806C157.805 152.662 158.04 147.994 159.873 143.944ZM70.6404 715.019C71.0396 715.216 71.4526 715.387 71.8756 715.538C72.3957 715.609 72.9134 715.676 73.4309 715.735C72.4928 715.524 71.5619 715.287 70.6404 715.019ZM122.47 674.737C114.819 677.512 112.717 664.486 97.6693 669.757C91.7886 680.666 84.1752 690.573 75.4731 699.381C72.38 703.223 63.2251 707.585 68.1587 713.218L68.9143 713.356C77.482 714.913 86.1789 716.15 94.9095 715.446C101.507 713.628 106.455 708.345 110.453 703.017C113.346 697.894 116.73 693.072 120.185 688.318C122.085 685.954 122.277 682.945 122.268 680.037C122.332 678.268 122.399 676.503 122.47 674.737ZM208.415 668.342C205.167 667.152 201.835 668.272 198.88 669.732C193.833 671.988 182.9 674.692 178.23 671.094C175.941 674.878 175.173 679.085 175.801 683.449L175.806 683.653C175.855 685.446 176.081 686.9 178.252 687.026L184.338 688.556C204.872 693.706 225.608 698.686 246.744 700.119C252.385 696.599 252.543 691.973 246.547 688.751L245.013 687.812C233.241 680.616 221.193 673.543 208.415 668.342ZM253.087 698.272C253.03 698.37 252.975 698.467 252.919 698.561C253.006 698.604 253.087 698.666 253.163 698.732C253.163 698.573 253.139 698.417 253.087 698.272ZM102.559 659.708C102.638 661.308 101.851 663.114 101.298 664.55C100.973 665.399 100.638 666.61 100.12 667.582C112.984 663.789 116.9 674.901 121.538 672.591L121.679 672.516V672.514C120.732 670.353 121.765 667.31 122.401 665.155C115.646 663.934 109.013 662.034 102.559 659.708ZM204.217 656.288L200.508 656.403C194.738 656.578 188.968 656.73 183.194 656.722C183.798 660.868 182.616 667.707 179.931 670.928C179.926 670.931 179.921 670.931 179.919 670.933C187.519 672.083 194.716 668.604 201.485 665.678C201.771 662.501 203.019 659.259 204.217 656.288ZM179.399 668.918C179.169 669.35 178.936 669.781 178.703 670.213C178.805 670.324 178.919 670.426 179.04 670.514C178.97 669.975 179.162 669.443 179.399 668.918ZM190.081 316.307C194.318 337.699 197.662 359.355 198.823 381.167L198.834 381.383C198.946 383.59 199.276 386.051 197.8 387.893C196.268 389.806 193.881 390.048 191.618 390.396C172.635 393.282 153.385 394.257 134.195 393.677C127.112 428.716 122.779 464.191 120.137 499.821C114.395 550.732 101.362 600.499 91.6012 650.728C106.739 657.345 122.439 662.041 139.03 662.692C162.514 575.964 206.48 484.434 208.821 397.675C208.947 397.535 209.249 397.568 209.282 397.779C210.056 402.526 209.726 407.48 209.555 412.265C208.906 426.99 207.266 441.709 204.848 456.24C198.71 492.33 187.372 527.248 175.758 561.887C175.369 563.442 175.957 565.172 175.977 566.76C178.403 593.251 178.651 619.877 179.432 646.45C179.268 649.388 180.193 652.714 179.173 655.473C187.945 654.298 196.761 653.664 205.577 652.93L205.643 652.887C206.008 652.656 206.591 652.411 206.926 652.823C214.375 652.238 221.831 651.702 229.283 651.202C218.714 575.581 226.019 496.752 254.614 425.711C252.803 424.053 253.592 420.359 253.177 418.05C252.795 408.629 252.816 398.992 254.669 389.716L254.197 389.744C248.504 390.069 223.454 391.073 222.767 386.824C221.814 379.626 224.116 372.49 224.586 365.344C225.43 349.198 225.226 332.988 225.116 316.821C220.158 317.484 215.404 316.574 210.503 316.388C203.688 316.328 196.887 316.502 190.081 316.307ZM101.73 659.412C101.602 659.969 101.453 660.526 101.293 661.083C101.513 660.585 101.761 660.107 102.056 659.686L102.146 659.561L101.73 659.412ZM182.795 656.725L182.389 656.729V656.729L182.387 656.962V656.962C182.482 657.12 182.498 657.314 182.379 657.471C182.365 658.187 182.334 658.905 182.279 659.623C182.436 658.656 182.593 657.689 182.795 656.725ZM177.634 656.488L177.656 656.848V656.848C178.176 656.829 178.7 656.85 179.218 656.824C179.491 656.81 179.772 656.762 180.054 656.712C179.24 656.687 178.428 656.622 177.634 656.488ZM270.063 359.44C269.806 359.741 269.526 359.924 269.241 360.016C269.243 366.859 267.861 373.588 264.074 379.513C262.498 381.601 261.608 383.978 260.846 386.455C256.84 397.792 256.096 409.971 257.556 421.843C261.493 416.073 263.057 409.188 264.156 402.398C264.216 402.057 264.781 402.062 264.843 402.398C266.173 409.665 263.886 416.802 261.152 423.518C259.444 424.738 259.851 427.933 259.647 429.813C288.665 434.039 278.574 378.365 282.291 361.218C282.36 360.746 282.761 360.403 283.217 360.258C278.865 359.594 274.454 359.546 270.063 359.44ZM133.407 393.643C133.442 393.826 133.473 394.008 133.497 394.191C133.549 394.013 133.601 393.833 133.653 393.653C133.573 393.65 133.49 393.648 133.407 393.643ZM153.018 158.148L152.51 158.281C147.148 159.663 145.413 159.473 145.11 165.943C143.792 174.723 138.926 182.382 136.739 190.872C135.864 193.87 136.79 199.396 140.937 198.584C142.281 198.172 143.329 199.982 142.312 200.942C139.308 203.782 136.392 206.709 133.459 209.617C145.237 249.34 160.536 288.031 179.173 325.048C179.912 326.517 177.696 327.809 176.962 326.339C158.434 289.204 143.025 250.526 131.065 210.792L130.704 209.588C130.175 208.126 136.929 202.883 138.159 201.172C125.827 195.234 143.044 174.44 143.512 164.426C139.982 165.977 135.981 165.42 132.252 166.045C125.099 167.299 118.821 171.428 113.24 175.885C90.5722 195.886 76.0863 223.578 61.5959 249.679C51.7275 266.708 46.9699 287.527 56.8729 305.642C68.3636 328.868 81.6932 351.255 95.7858 372.988C97.3333 374.999 99.7151 372.687 101.345 371.843C110.718 366.215 118.846 358.558 125.097 349.604C109.943 331.024 96.7431 310.719 87.4079 288.596L87.2791 288.339C85.1846 284.132 83.5283 279.043 87.0224 275.081C99.4294 259.201 110.464 242.343 120.848 225.091C120.955 224.918 121.195 225.07 121.116 225.25C120.05 227.663 118.927 230.057 117.756 232.429C120.121 267.506 119.721 303.269 120.744 338.569C123.501 342.217 126.339 345.803 129.243 349.332C138.665 342.844 149.749 338.612 161.131 337.301L161.867 337.227C166.702 336.73 174.688 335.793 175.321 342.066C174.538 349.782 158.579 345.444 153.477 349.82C161.841 353.188 171.425 354.138 179.104 359.215C181.567 360.651 186.396 365.227 181.679 366.977C179.62 367.153 177.494 366.355 175.438 366.179C177.752 366.958 179.881 368.278 181.237 370.348C182.213 371.767 182.925 374.713 180.594 375.32C175.277 375.47 169.982 373.738 164.746 372.877L165.211 373.065C169.028 374.627 174.962 377.432 169.821 381.568C164.674 384.231 158.442 379.702 153.315 378.493C139.506 375.282 129.291 384.081 115.134 374.555C114.732 377.738 114.129 380.9 113.888 384.101L113.857 384.282C113.366 387.204 113.786 388.259 116.939 388.818C120.741 389.965 124.723 390.325 128.674 390.538C147.686 391.543 166.824 390.83 185.707 388.396C188.424 387.668 194.806 388.355 195.942 385.367C193.814 308.465 161.746 236.103 152.917 160.2C152.771 159.47 152.762 158.726 153.018 158.148ZM206.618 164.72C205.101 164.782 203.689 165.111 202.181 165.263C203.016 167.039 207.425 169.55 207.024 170.432C207.342 170.679 207.665 170.916 207.993 171.145C207.537 169.543 207.076 167.943 206.614 166.341C223.367 207.137 225.669 255.404 227.895 299.908C228.628 322.348 229.027 344.857 227.942 367.283C227.339 373.239 225.742 379.259 226.177 385.274C236.009 386.689 245.984 386.81 255.856 385.763C256.148 384.997 256.478 384.244 256.853 383.504C271.631 365.491 263.794 342.917 256.678 323.405C252.375 323.587 248.046 323.314 243.739 323.368C245.07 327.485 245.413 331.842 246.122 336.1C246.604 339.134 247.219 342.144 247.926 345.132L248.116 345.929C248.383 347.031 248.736 348.22 248.349 349.313C247.969 350.391 246.658 350.827 245.789 349.988C244.222 348.202 244.39 345.541 243.884 343.326L243.791 342.629C242.928 336.271 241.792 329.674 243.369 323.365C241.822 323.033 237.591 324.253 237.369 322.173C237.435 318.738 234.942 311.296 237.717 309.033C239.367 307.775 242.205 308.173 244.141 308.095C246.378 308.005 248.613 307.921 250.847 307.936C232.888 264.543 237.882 251.186 239.705 208.001L239.759 206.683C239.754 206.398 240.213 206.327 240.263 206.614C243.009 224.303 239.348 242.213 241.083 259.958C244.162 293.673 265.531 322.621 269.103 356.174C276.808 355.281 284.603 356.377 292.071 358.31C292.228 356.947 292.349 355.579 292.434 354.212C293.852 329.167 285.062 304.844 274.806 282.381C268.66 270.458 264.861 257.732 263.271 244.427C260.183 227.096 253.255 210.771 246.349 194.672C241.983 182.634 232.546 179.796 220.843 178.398C224.79 184.939 228.714 191.495 232.63 198.056C233.504 200.039 230.825 201.456 229.656 202.677C244.033 210.516 235.639 234.722 235.936 248.285C234.868 260.748 234.466 273.283 232.585 285.659C232.447 286.517 231.131 286.266 231.119 285.462C231.293 266.918 233.504 248.448 234.475 229.933L234.593 228.583C235.35 219.817 236.09 207.171 225.548 204.765C224.125 204.533 224.016 202.419 225.158 201.784C226.678 200.937 228.011 199.904 229.203 198.674C225.175 191.917 221.154 185.155 217.169 178.369L216.982 178.054C214.152 173.253 211.522 167.665 206.618 164.72ZM172.407 341.595C171.244 338.171 159.957 340.401 156.944 340.774C145.834 342.871 134.653 347.786 126.192 355.357C125.669 355.824 125.052 355.816 124.565 355.563C120.775 360.404 116.398 364.791 111.598 368.646C112.477 369.338 113.379 370.008 114.308 370.651C114.752 370.698 115.153 370.928 115.334 371.34C128.541 380.908 138.256 373.445 151.976 375.169C157.098 376.201 161.815 379.459 167.094 379.596C170.968 378.715 167.557 377.096 165.748 376.47C161.651 374.514 157.475 372.732 153.289 370.974L149.941 369.57C148.295 368.88 148.86 366.394 150.698 366.828C153.916 367.586 157.144 368.307 160.373 369.016C166.585 370.282 172.944 371.907 179.221 372.523C177.825 368.646 163.022 364.459 158.718 362.918C157.092 362.15 152.456 362.296 152.985 359.777C153.413 357.432 158.346 360.117 159.991 360.308C166.706 362.011 173.559 363.043 180.401 364.081C173.052 356.71 161.661 356.073 152.275 352.621L152.07 352.575C150.397 352.19 148.048 351.462 149.419 349.546C154.241 342.437 173.214 346.035 172.407 341.595ZM158.521 302.018C161.944 299.21 163.778 304.977 163.561 307.658C163.722 309.884 163.895 312.11 164.041 314.335C163.828 316.075 165.683 322.419 163.202 322.476C152.357 321.926 141.531 322.065 130.683 321.412C130.668 323.6 130.562 325.785 130.673 327.975C130.614 330.713 131.566 333.449 131.01 336.157C130.671 337.401 128.978 337.569 128.316 336.507C126.335 331.847 127.697 325.835 129.101 321.121C123.789 320.139 123.056 315.147 124.456 310.692L124.441 310.451C124.363 309.077 124.369 307.603 124.983 306.492C126.623 304.561 130.026 305.816 132.286 305.67C139.213 304.956 146.267 304.759 153.114 303.487C154.886 303.028 156.693 302.104 158.521 302.018ZM115.46 236.942C110.067 247.234 103.862 257.027 97.2561 266.563C95.8407 268.599 94.3872 270.609 92.9105 272.604L92.6372 272.954C89.6859 276.701 86.6211 279.81 89.4095 284.782C96.7156 302.523 106.498 319.184 117.832 334.647C117.114 302.078 116.48 269.5 115.46 236.942ZM251.047 308.457C237.497 311.296 237.243 305.98 239.505 321.026C244.939 321.063 250.371 320.941 255.806 321.028C254.253 316.826 252.643 312.643 251.047 308.457ZM160.093 304.207C153.016 306.666 145.502 306.315 138.111 306.618C138.126 308.206 130.564 306.732 129.113 306.95L128.555 306.902C127.355 306.806 125.846 306.79 125.833 308.26C126.218 310.834 124.769 313.652 125.667 316.181C126.878 319.587 132.06 319.236 134.919 319.303C139.634 319.409 144.348 319.523 149.062 319.646C153.296 319.758 157.545 319.969 161.784 319.999C161.402 316.985 161.298 313.894 161.067 310.882C160.777 308.716 161.195 306.148 160.093 304.207ZM189.851 315.16C189.858 315.198 189.865 315.236 189.875 315.276C189.957 315.252 190.051 315.239 190.131 315.217C190.038 315.2 189.943 315.181 189.851 315.16Z" fill="black"/>
<path fill-rule="evenodd" clip-rule="evenodd" d="M227.517 106.667C226.617 91.9247 221.824 75.2105 207.716 67.9722C176.615 55.5154 135.723 86.8851 133.558 118.932C132.803 129.901 138.906 141.888 150.059 144.938C152.538 148.217 156.288 150.219 159.99 151.957C204.074 174.782 232.551 156.228 227.517 106.667V106.667Z" fill="white"/>
<path fill-rule="evenodd" clip-rule="evenodd" d="M237.56 97.4965C236.002 93.1782 234.356 88.8931 232.625 84.6411C230.939 80.5029 229.416 76.2753 227.322 72.3332C214.816 48.7886 192.074 48.7886 180.318 51.865C174.222 49.2437 162.803 49.9831 156.455 52.3485C146.179 56.1779 133.651 71.2417 129.368 78.0098C119.912 92.9531 114.01 112.842 120.292 130.11C121.113 132.367 122.16 134.457 123.339 136.471C122.596 137.476 121.741 138.427 120.794 139.362C117.981 142.14 115.167 144.827 112.736 147.96C110.321 151.074 108.318 154.386 106.827 158.037C104.016 164.923 103.881 172.719 107.597 179.289C110.83 185.006 116.558 189.263 123.011 189.669C123.342 189.715 123.674 189.757 124.007 189.791C124.862 191.196 125.905 192.49 127.094 193.618C130.74 197.079 139.43 198.854 144.386 198.968C144.64 199.171 144.897 199.375 145.153 199.577C148.186 201.959 151.368 204.362 154.85 206.057C157.208 207.206 160.3 208.166 162.761 207.336C163.877 208.081 165.708 207.924 166.815 207.315C168.634 206.315 170.113 204.514 171.013 202.67C173.196 198.193 172.671 193.294 172.111 188.511C171.493 183.228 170.899 177.942 170.296 172.66C169.824 168.528 169.33 164.329 168.071 160.349C167.42 158.287 166.568 156.306 165.466 154.443C165.494 154.287 165.489 154.13 165.444 153.983C165.083 152.812 164.337 152.198 163.454 151.402C163.34 151.3 163.226 151.196 163.114 151.089C162.673 150.587 162.2 150.12 161.694 149.724C161.499 149.527 161.307 149.328 161.115 149.129C159.516 147.458 158.006 145.702 156.664 143.82C155.363 141.995 154.187 140.09 153.069 138.148C151.931 136.174 151.178 133.996 150.043 132.036C149.946 131.868 149.699 131.835 149.561 131.974C149.209 132.337 148.984 132.74 149.027 133.164L148.851 133.19C148.784 132.55 148.193 132.029 147.39 132.169C146.189 132.377 145.201 132.456 144.16 132.057C144.343 130.846 144.512 129.633 144.678 128.417C144.982 126.179 145.265 123.935 145.507 121.691C146.094 121.83 146.675 122.032 147.245 122.288C148.058 122.65 148.825 123.139 149.48 123.738C150.126 124.331 150.573 125.13 151.361 125.542C152.268 126.014 153.363 125.234 153.097 124.21C152.558 122.141 149.506 120.956 147.618 120.565C146.97 120.43 146.307 120.373 145.645 120.387C145.794 118.946 145.927 117.505 146.037 116.062C146.089 115.379 146.136 114.696 146.181 114.011C147.649 113.568 149.221 113.435 150.748 113.644C151.252 114.045 151.755 114.44 152.242 114.841C153.788 116.116 155.327 117.398 156.847 118.704C156.985 118.82 157.12 118.936 157.258 119.055C158.16 119.83 159.286 119.062 159.134 117.965C157.894 108.973 163.414 101.82 169.876 96.2783C177.029 90.1421 190.034 89.4276 198.541 78.7988C202.459 79.5946 211.206 81.9582 214.816 87.6985C219.87 95.7427 219.209 102.95 219.594 112.075C219.979 121.207 220.957 130.732 218.879 139.736C216.963 148.039 211.774 155.133 203.723 158.394C203.523 158.474 203.321 158.553 203.12 158.629C198.956 160.195 194.413 160.638 190.034 159.814C185.187 158.899 181.14 156.685 177.107 153.962C176.875 153.808 176.535 154.125 176.711 154.358C182.026 161.387 192.466 163.736 200.747 161.88C201.134 161.793 201.519 161.698 201.901 161.594C200.049 166.91 200.422 172.745 202.835 177.921C204.286 181.035 206.499 183.73 209.194 185.856C212.165 188.198 215.851 190.089 217.913 193.377C219.801 196.389 219.24 199.773 216.008 201.513C215.193 201.954 214.88 203.378 215.687 204.004C215.996 204.241 216.305 204.483 216.621 204.72C218.43 206.083 223.401 208.642 224.206 208.737C231.355 209.583 236.161 204.345 239.242 198.167C242.859 190.914 241.918 182.076 237.933 175.169C234.736 169.628 228.441 164.167 230.944 157.154C231.837 154.649 233.663 152.514 235.437 150.584C237.46 148.387 239.636 146.33 241.576 144.055C243.505 141.796 245.215 139.338 246.169 136.504C247.563 132.361 246.87 127.881 245.822 123.745C243.578 114.867 240.664 106.107 237.56 97.4965Z" fill="black"/>
<path fill-rule="evenodd" clip-rule="evenodd" d="M197.519 143.848C195.922 143.198 194.498 142.114 193.456 140.729C193.094 140.247 193.001 139.739 193.076 139.274C193.162 138.751 193.472 138.277 193.895 137.959C194.319 137.64 194.849 137.483 195.362 137.563C195.807 137.633 196.251 137.876 196.602 138.381L196.675 138.482C197.295 139.318 198.101 140.004 199.021 140.446C199.907 140.872 200.898 141.071 201.923 140.955C203.876 140.735 205.222 139.681 206.653 138.25C206.831 138.069 207.008 137.882 207.186 137.693C207.299 137.521 207.455 137.411 207.629 137.353C207.821 137.289 208.039 137.293 208.239 137.362C208.431 137.429 208.604 137.556 208.719 137.725C208.829 137.886 208.891 138.085 208.871 138.313C208.74 139.796 207.963 141.12 206.859 142.16C205.633 143.315 204.007 144.113 202.477 144.393C200.792 144.702 199.074 144.481 197.519 143.848V143.848ZM203.273 120.962C205.066 122.05 207.799 124.587 205.869 127.284C203.598 129.662 200.329 126.935 198.718 125.702C197.224 124.746 195.545 127.204 196.931 128.32C208.574 136.923 213.299 121.247 204.18 119.683C203.176 119.511 202.803 120.626 203.273 120.962ZM182.409 110.955C182.607 108.501 186.353 107.944 186.726 110.372C187.059 112.548 186.666 114.547 185.684 116.506C184.746 118.377 182.388 117.504 182.209 115.8C181.97 113.516 182.286 112.482 182.409 110.955ZM210.923 109.869C211.445 109.186 212.199 108.72 213.102 108.984C215.925 109.807 215.093 113.806 214.102 115.752C213.563 116.809 211.822 117.077 211.035 116.147C209.753 114.629 209.139 111.598 210.769 110.103C210.813 110.025 210.862 109.947 210.923 109.869ZM185.645 100.215L186.09 100.137C187.47 99.8992 189.185 99.6704 190.16 100.777C190.678 101.364 190.856 102.455 190.16 103.016C188.937 104.005 187.584 103.622 186.118 103.705C184.91 103.775 183.748 103.974 182.584 104.306C180.031 105.034 177.95 106.364 175.769 107.824C175.483 108.016 175.191 107.65 175.328 107.383C176.587 104.922 179.026 102.901 181.47 101.669C182.774 101.011 184.202 100.465 185.645 100.215ZM208.35 99.1128L208.691 99.1825C212.405 99.9572 217.23 101.505 218.988 105.145C219.055 105.66 218.984 105.77 218.927 105.842L218.908 105.866C218.86 105.928 218.822 106.013 218.599 106.083C218.537 106.068 218.474 106.052 218.411 106.036C217.605 105.825 216.967 105.534 216.349 105.233L215.68 104.904C214.903 104.524 214.12 104.158 213.289 103.887C211.517 103.31 209.694 102.904 207.843 102.687C207.442 102.64 207.056 102.505 206.751 102.273C206.462 102.053 206.241 101.749 206.14 101.344C206.009 100.821 206.047 100.425 206.328 99.9522C206.54 99.5975 206.843 99.3516 207.19 99.2104C207.545 99.0665 207.949 99.0326 208.35 99.1128Z" fill="black"/>
</svg>
