<svg width="434" height="635" viewBox="0 0 434 635" fill="none" xmlns="http://www.w3.org/2000/svg">
<path fill-rule="evenodd" clip-rule="evenodd" d="M91.5965 371.475C86.5062 384.17 80.413 398.58 74.8073 410.946C75.2562 414.864 76.941 418.871 75.6227 422.794C81.4327 419.021 87.965 416.652 94.6328 414.862L95.0077 417.369C95.75 417.345 97.0873 417.332 97.839 417.322C97.7218 416.325 97.5633 414.547 97.4915 413.542L97.4892 413.543C96.5592 402.737 98.2966 391.675 100.418 381.115C100.936 377.305 99.6729 371.386 94.8631 371.289C94.148 371.397 92.9705 369.467 92.5368 369.092L91.5965 371.475ZM158.864 517.514C134.631 518.871 120.775 499.074 109.059 480.553C107.825 481.369 106.459 482.281 105.213 483.018C103.297 486.093 99.3961 487.025 96.0285 487.366C84.0258 487.978 81.4548 477.217 78.475 467.96C77.9074 468.358 76.6381 470.381 75.6835 469.937C70.2935 468.745 65.046 467.319 59.3316 467.675C52.7731 466.277 18.7869 481.222 21.9237 468.188C23.4556 462.52 31.8874 459.835 36.2301 455.922C42.5452 448.749 41.0073 439.52 44.0241 430.978C46.5322 422.409 49.4627 414.336 54.886 406.459C55.3756 377.015 56.48 340.98 64.1142 314.795C68.9816 296.418 75.0118 277.419 72.6939 258.136L71.3774 258.101C70.8016 257.775 69.9165 257.529 69.2099 257.637C68.6139 256.979 67.5089 257.179 66.699 256.913C65.2391 243.293 64.6761 231.636 66.5287 219.28C68.2494 198.878 81.1447 190.533 99.9793 186.09C120.678 179.311 134.722 172.403 145.446 155.548C147.475 152.127 148.707 148.077 151.41 145.193C158.12 136.714 177.418 138.112 182.402 147.04C184.579 152.263 184.766 158.359 186.421 163.789C192.93 186.851 222.866 184.135 238.714 196.744C245.691 201.91 247.939 209.885 248.843 218.002C249.983 228.21 252.16 238.04 251.881 248.186C252.609 248.323 254.275 247.806 254.558 248.848C253.895 251.039 245.396 251.032 243.026 251.419C246.144 267.901 243.316 284.451 245.822 300.985C249.684 319.562 257.284 336.814 263.252 354.761C265.549 360.692 267.087 367.05 270.504 372.451L270.443 372.498C270.983 373.394 271.575 374.265 272.191 375.104C272.824 375.332 273.484 375.704 274.109 375.932L274.248 375.698L274.585 376.15L275.577 375.732C277.034 376.459 278.616 377.301 280.169 378.186C299.266 389.756 311.763 401.497 326.735 416.035L324.748 417.643C325.471 418.648 326.347 419.978 327.05 421.037C327.636 420.52 328.888 419.65 329.609 419.351C342.375 434.503 343.936 460.767 337.718 476.733C335.741 481.517 332.612 485.445 328.833 488.754C327.273 491.096 324.468 494.33 320.884 495.883C320.884 495.883 320.432 496.522 320.417 496.544C320.226 496.569 319.052 496.838 318.984 497.111C309.444 498.717 299.878 502.909 289.993 502.97C273.87 502.829 260.016 489.76 247.084 481.129C238.904 475.305 229.373 471.304 220.54 467.41C221.198 470.767 221.011 471.918 217.355 473.188C214.099 474.481 210.181 473.47 207.152 472.048C207.231 477.612 207.675 483.169 207.522 489.103C207.521 496.287 207.761 505.12 200.007 508.436C186.805 513.628 171.888 517.358 158.864 517.514V517.514Z" fill="white"/>
<path fill-rule="evenodd" clip-rule="evenodd" d="M326.999 418.964C326.54 418.273 326.07 417.589 325.588 416.913C326.158 417.53 326.719 418.158 327.266 418.793C327.171 418.841 327.081 418.9 326.999 418.964M273.874 374.519C273.784 374.452 273.684 374.393 273.569 374.347C273.302 374.237 273.035 374.122 272.769 374.012C272.263 373.313 271.789 372.596 271.345 371.863C272.274 372.831 273.215 373.771 274.231 374.652C274.113 374.608 273.992 374.565 273.874 374.519M265.131 370.783C260.801 368.481 256.438 366.24 252.066 364.043C251.688 363.854 251.322 363.859 251.011 363.984C249.131 363.019 247.241 362.066 245.33 361.162C244.168 360.614 242.996 360.097 241.829 359.575C241.74 359.442 241.658 359.303 241.588 359.155C240.888 357.662 241.552 355.808 242.004 354.341C242.119 353.972 242.07 353.652 241.924 353.401C242.17 351.258 242.078 349.102 241.655 347.158C240.65 342.528 238.164 338.308 235.8 334.26C233.371 330.104 231.242 325.93 229.865 321.303C227.097 312.016 226.884 302.293 227.084 292.683C227.305 282.007 227.923 271.334 228.351 260.667C228.48 257.486 228.605 254.306 228.708 251.123C228.957 251.272 229.157 251.425 229.529 251.535C230.134 251.712 230.752 251.858 231.365 252.001C232.588 252.288 233.83 252.488 235.074 252.659C237.413 252.982 239.744 253.128 242.104 253.095C242.394 253.09 242.683 253.082 242.971 253.072C241.606 259.983 241.693 267.301 241.568 274.287C241.419 282.366 241.024 290.524 241.924 298.575C242.804 306.444 245.133 313.957 247.675 321.426C250.291 329.113 252.984 336.777 255.525 344.487C256.959 348.838 258.398 353.188 259.839 357.536C260.532 359.631 261.227 361.726 261.919 363.818C262.679 366.11 263.058 368.806 264.982 370.409C265.195 370.586 265.433 370.721 265.69 370.816C265.733 370.906 265.774 370.993 265.821 371.082C265.59 370.983 265.361 370.883 265.131 370.783M236.482 353.565C236.179 354.981 235.666 356.382 234.966 357.47C234.966 357.593 234.94 357.723 234.879 357.857C234.181 359.375 232.514 360.258 231.073 360.942C229.336 361.767 227.543 362.476 225.792 363.27C223.17 364.455 220.483 365.377 217.728 366.035C217.677 366.056 217.625 366.079 217.571 366.099C213.086 367.897 208.492 369.415 203.834 370.709C194.396 373.333 184.709 375.01 174.978 376.106C165.552 377.167 156.057 377.773 146.578 378.06C137.973 378.324 129.232 378.134 120.748 376.565C114.672 375.441 108.701 373.582 103.225 370.757C102.784 370.066 102.166 369.474 101.647 368.826C101.712 367.784 101.081 366.622 100.127 366.253C99.7572 365.431 99.4674 364.576 99.2622 363.697C99.4854 361.546 99.7854 359.406 100.224 357.255C101.088 353.04 102.217 348.884 103.351 344.736C105.715 336.078 107.606 327.449 107.921 318.448C108.242 309.332 107.323 300.247 106.067 291.231C104.792 282.076 103.261 272.955 101.617 263.862C100.683 258.692 99.7829 253.512 98.7954 248.35C97.7977 243.129 97.0103 237.805 95.71 232.648C95.6689 232.481 95.3971 232.512 95.4048 232.691C95.5843 237.326 96.2255 241.971 96.6743 246.588C96.9898 249.827 97.3309 253.061 97.6772 256.296C96.9744 256.134 96.2152 256.229 95.3945 256.244C94.048 256.272 92.7015 256.257 91.3549 256.265C88.6645 256.275 85.9714 256.288 83.2784 256.301C78.6489 256.321 74.0015 256.39 69.3797 256.723C69.095 256.654 68.8078 256.585 68.5179 256.498C67.4125 256.165 67.0586 255.376 66.9867 254.273C66.7995 251.502 67.1971 248.629 67.2458 245.848C67.2971 242.893 67.2791 239.938 67.1868 236.986C67.1278 235.052 67.3176 232.681 66.1993 231.001C66.3071 229.47 66.4379 227.939 66.5995 226.413C67.2048 220.682 68.2384 214.925 70.0158 209.433C71.3007 205.464 73.409 201.823 76.4406 198.929C82.3884 193.26 90.6137 191.017 98.2979 188.768C107.585 186.049 116.839 182.7 125.213 177.793C125.11 178.016 125.174 178.308 125.477 178.369C125.964 178.469 126.323 178.733 126.59 179.094C126.708 179.693 126.883 180.285 127.119 180.864C127.167 180.981 127.229 181.086 127.298 181.178C127.416 182.041 127.429 182.925 127.49 183.547C127.696 185.657 128.078 187.718 128.657 189.757C129.824 193.856 131.653 197.797 134.069 201.313C138.922 208.365 146.167 213.75 154.49 215.927C162.892 218.121 172.21 217.202 179.764 212.808C186.75 208.744 192.165 202.017 193.75 194.018C194.593 189.767 194.457 185.439 193.662 181.194C193.534 180.513 193.393 179.814 193.234 179.109C198.561 183.68 205.394 186.484 211.985 188.648C219.031 190.96 226.253 192.86 232.673 196.694C235.63 198.458 238.436 200.655 240.491 203.449C243.04 206.916 244.14 210.951 244.83 215.146C245.756 220.779 246.431 226.464 247.067 232.136C247.385 234.988 247.68 237.846 247.949 240.704C248.09 242.217 248.226 243.73 248.352 245.246C248.444 246.317 248.547 247.169 248.895 247.981C246.879 248.519 244.838 248.923 242.781 249.287C240.352 249.72 237.88 249.971 235.417 250.122C234.148 250.199 232.876 250.224 231.604 250.245C230.97 250.255 230.336 250.24 229.703 250.245C229.341 250.247 229.046 250.345 228.731 250.409C229.013 241.403 229.105 232.389 228.559 223.396C228.546 223.168 228.177 223.086 228.136 223.34C226.33 233.915 225.376 244.647 224.643 255.343C223.922 265.831 223.165 276.32 222.529 286.816C221.947 296.46 221.729 306.198 223.378 315.757C224.184 320.422 225.512 324.947 227.397 329.292C229.254 333.576 231.878 337.448 234.014 341.589C235.969 345.381 237.356 349.514 236.482 353.565M223.096 450.858C219.285 449.754 215.688 448.17 212.138 446.41C208.713 444.712 205.081 442.904 202.179 440.398C202.116 440.344 202.183 440.23 202.261 440.257C205.84 441.533 209.232 443.427 212.718 444.952C216.34 446.537 220.044 447.924 223.679 449.476C224.484 449.82 223.896 451.09 223.096 450.858M215.466 469.548C214.53 470.178 213.501 470.749 212.434 471.12C210.985 471.629 209.518 471.76 208.059 471.612C207.841 468.987 207.574 466.362 207.253 463.745C210.539 465.399 213.976 466.774 217.407 468.152C216.728 468.559 216.143 469.089 215.466 469.548M202.007 456.024C201.908 457.085 200.493 457.061 200.372 456.024C199.822 451.332 199.547 446.6 199.074 441.898C198.237 433.561 196.853 425.354 194.949 417.195C194.468 415.134 193.967 413.08 193.413 411.038C193.125 409.979 192.148 408.119 192.805 407.036C193.614 405.704 194.733 407.589 193.869 407.697C193.781 407.707 193.782 407.582 193.85 407.555C193.178 407.822 193.645 408.425 193.821 408.902C193.991 409.361 194.165 409.819 194.333 410.278C194.67 411.197 194.999 412.119 195.318 413.043C196.01 415.045 196.659 417.058 197.233 419.097C198.355 423.084 199.341 427.119 200.1 431.191C201.613 439.311 202.771 447.756 202.007 456.024M105.343 480.187C104.802 479.908 104.151 479.808 103.576 479.923C101.683 480.3 100.932 481.393 99.3084 482.215C98.3543 482.699 96.7051 483.101 95.7048 483.163C94.0403 483.263 93.0785 483.147 91.5524 482.663C90.4419 482.31 89.2313 481.654 88.4054 480.894C86.2074 478.874 85.1225 476.077 84.1607 473.238C83.1014 470.106 82.1909 466.867 80.5597 463.97C79.7389 462.516 78.6976 461.11 77.4563 459.986C76.2765 458.918 74.3759 458.142 73.5732 456.726C72.7447 455.267 72.6755 453.152 72.4293 451.51C72.183 449.864 72.0035 448.207 71.8855 446.548C71.4264 440.09 71.8573 433.007 75.4583 427.409C79.98 420.385 88.1669 418.347 95.7561 416.381C95.8716 417.589 96.0101 418.795 96.1768 419.999C96.3794 421.474 96.6256 422.944 96.9103 424.406C95.5433 425.497 94.3404 426.89 93.5017 427.909C91.4627 430.39 89.9417 433.219 88.8927 436.251C87.8822 439.173 87.3846 442.271 87.4744 445.362C87.5206 446.899 87.7565 448.397 88.19 449.871C88.3105 450.279 88.4541 450.719 88.626 451.162C88.0899 452.092 87.9899 453.293 88.6132 454.202C94.1814 462.321 99.7495 470.439 105.318 478.559C105.574 478.932 105.831 479.309 106.087 479.685C105.836 479.844 105.59 480.013 105.343 480.187M95.7177 415.968C95.3304 415.973 94.9431 415.984 94.5532 415.994C94.9328 415.889 95.3124 415.784 95.692 415.679C95.6997 415.776 95.7074 415.871 95.7177 415.968M95.4945 413.077C92.0449 414.02 88.6003 414.99 85.2584 416.268C83.304 417.016 80.9983 417.82 79.0439 419C78.4668 419.274 77.9051 419.571 77.3562 419.896C77.4332 419.492 77.4306 419.064 77.3332 418.634C76.8818 416.619 76.5458 414.58 76.1687 412.55C76.1277 412.332 76.079 411.892 75.9969 411.385C76.3662 410.716 76.6432 409.989 76.9561 409.264C77.5255 407.951 78.0949 406.635 78.6669 405.321C79.7389 402.845 80.811 400.369 81.8831 397.895C84.0812 392.822 86.2689 387.737 88.3772 382.626C89.8058 379.159 91.237 375.689 92.6143 372.199C92.9964 372.647 93.5889 372.954 94.3942 372.985C98.2799 373.123 98.7954 378.255 98.4748 381.105C98.2312 383.274 97.649 385.407 97.2412 387.55C96.8257 389.739 96.482 391.939 96.1845 394.146C95.3458 400.422 95.1047 406.768 95.4945 413.077M62.9677 464.073C58.2613 463.799 53.5215 464.25 48.9254 465.284C44.4832 466.283 40.1666 467.776 35.7192 468.769C33.552 469.253 31.3591 469.586 29.1328 469.637C28.0633 469.66 26.9835 469.632 25.9191 469.512C25.7857 469.496 25.6165 469.45 25.4446 469.407C25.7498 468.472 26.2961 467.686 27.0784 466.9C28.1659 465.807 29.0815 465.202 30.4332 464.337C33.1544 462.595 35.9885 461.018 38.243 458.662C41.1284 455.643 42.4954 451.771 43.2085 447.728C43.9728 443.396 44.4652 439.017 45.1987 434.679C45.8015 431.097 46.494 427.514 47.3429 423.975C48.3381 420.859 49.6359 417.843 51.1106 414.908C52.2417 412.66 53.4933 410.483 54.7142 408.286C55.735 409.231 57.2584 409.057 58.1228 407.836C58.5229 407.27 58.9974 406.722 59.1846 406.041C59.3641 405.393 59.3052 404.645 59.3103 403.982C59.3205 402.735 59.3308 401.488 59.3411 400.238C59.3641 397.66 59.3924 395.078 59.4283 392.5C59.4975 387.506 59.6001 382.513 59.7694 377.52C60.1105 367.48 60.6568 357.444 61.7905 347.458C64.0141 327.851 69.6618 308.861 72.0958 289.287C72.3959 286.88 72.6575 284.445 72.8499 281.992C73.9091 274.466 74.0912 266.828 73.3782 259.245C81.6446 259.174 89.9084 259.589 98.1286 260.487C99.1212 269.708 100.255 278.904 101.427 288.099C102.576 297.095 103.561 306.167 103.456 315.247C103.404 319.715 103.099 324.194 102.363 328.604C101.653 332.864 100.573 337.051 99.4238 341.212C98.2696 345.384 97.0283 349.534 96.0101 353.742C94.466 357.608 92.7861 361.418 91.0574 365.206C86.6973 374.76 82.1883 384.242 77.9179 393.836C76.6868 396.607 75.4685 399.383 74.2426 402.156C73.6296 403.544 73.0166 404.932 72.4036 406.317C71.7137 407.879 70.8211 409.403 70.8288 411.149C70.8339 412.191 71.4546 412.947 72.2625 413.282C71.9189 415.297 71.806 417.341 71.7829 419.384C71.7701 420.603 72.5729 421.607 73.6347 421.999C73.6321 422.262 73.6245 422.524 73.6116 422.787C73.5962 422.803 73.5809 422.818 73.5655 422.831C67.9921 428.459 66.4763 436.62 66.5225 444.253C66.5456 448.245 66.9534 452.271 67.6356 456.201C68.0537 458.614 69.1078 460.603 71.0417 462.129C72.4087 463.207 73.963 464.25 74.853 465.561C75.0351 465.832 75.2069 466.106 75.3711 466.385C71.5495 464.785 66.9867 464.306 62.9677 464.073M126.423 177.063C126.418 177.248 126.418 177.435 126.423 177.619C126.19 177.555 125.944 177.519 125.672 177.522C125.926 177.373 126.172 177.215 126.423 177.063M341.752 448.391C341.139 442.763 340.213 437.099 338.204 431.783C336.358 426.895 333.595 422.483 330.305 418.439C326.994 414.37 323.198 410.729 319.312 407.213C315.214 403.506 311.059 399.851 306.865 396.251C298.609 389.163 289.996 382.377 280.514 377.01C280.512 377.005 280.509 377 280.504 376.995C280.489 376.987 280.473 376.982 280.455 376.974C278.914 376.104 277.349 375.264 275.759 374.473C275.372 374.281 275 374.293 274.684 374.427C274.677 374.416 274.672 374.404 274.661 374.396C273.525 373.333 272.33 372.386 271.094 371.443C270.07 369.695 269.214 367.853 268.56 365.915C268.496 365.726 268.393 365.572 268.272 365.441C268.016 364.74 267.729 364.043 267.475 363.344C266.782 361.426 266.105 359.503 265.42 357.583C264.051 353.742 262.684 349.898 261.309 346.06C258.562 338.385 255.923 330.673 253.261 322.968C250.76 315.731 248.195 308.464 246.926 300.892C245.61 293.056 245.91 284.993 245.805 277.08C245.746 272.512 245.718 267.931 245.482 263.371C245.302 259.883 245.071 256.406 244.438 252.987C246.225 252.857 248.005 252.618 249.77 252.314C251.712 251.976 255.767 251.73 255.682 248.959C255.649 247.914 254.848 247.187 253.879 246.921C253.653 246.857 253.425 246.831 253.194 246.829C253.399 245.082 252.971 243.188 252.804 241.462C252.553 238.855 252.281 236.248 251.986 233.646C251.394 228.402 250.711 223.166 249.952 217.942C249.262 213.2 248.557 208.429 246.336 204.114C244.648 200.834 242.142 197.979 239.254 195.7C227.246 186.223 211.003 185.987 198.379 177.737C195.114 175.601 192.193 172.931 190.082 169.632C188.876 167.745 188.069 165.712 187.494 163.553C187.122 162.16 186.773 160.798 186.327 159.428C185.888 158.089 185.765 156.99 184.937 155.81C184.847 155.682 184.655 155.728 184.645 155.887C184.565 157.106 184.786 158.176 184.847 159.39C184.909 160.655 184.868 161.902 184.996 163.174C185.027 163.495 185.065 163.815 185.104 164.132C185.06 164.209 185.024 164.293 184.996 164.386C184.409 166.255 184.729 168.28 185.727 169.896C185.714 170.065 185.727 170.237 185.773 170.408C186.276 172.275 187.189 174.001 187.871 175.811C188.517 177.53 189.066 179.286 189.492 181.073C190.295 184.446 190.608 187.913 190.272 191.37C189.548 198.78 185.145 205.095 178.979 209.118C172.133 213.584 163.452 214.695 155.572 212.759C147.537 210.785 140.892 205.664 136.198 198.952C133.59 195.224 131.594 191.037 130.35 186.663C129.873 184.986 129.591 183.224 129.134 181.534C129.581 181.291 129.85 180.812 129.591 180.182C128.914 178.533 128.806 176.907 129.306 175.217C133.864 172.134 138.098 168.529 141.707 164.375C145.295 160.245 149.014 155.229 150.563 149.923C151.171 147.839 148.04 146.446 147.003 148.425C145.87 150.589 144.941 152.819 143.703 154.934C142.459 157.065 141.035 159.088 139.458 160.985C136.319 164.765 132.669 168.14 128.683 171.018C119.796 177.435 109.524 181.557 99.1083 184.781C91.042 187.278 82.6038 189.455 75.9071 194.863C68.5231 200.826 65.9813 210.204 64.5938 219.207C64.0064 223.015 63.6653 226.845 63.5114 230.689C63.3499 230.996 63.3114 231.357 63.4755 231.695C63.2473 238.906 63.6628 246.148 64.3527 253.328C64.3501 254.088 64.4066 254.839 64.5758 255.55C64.6579 256.342 64.7425 257.133 64.8297 257.922C64.8503 258.121 64.9477 258.257 65.1375 258.326C65.8659 258.587 66.5943 258.744 67.3304 258.792C67.4561 258.836 67.5843 258.874 67.7126 258.91C67.9178 259.174 68.2409 259.35 68.6846 259.338C68.9386 259.33 69.1925 259.325 69.4438 259.317C69.7336 259.399 70.0158 259.499 70.2825 259.64C70.4826 259.745 70.6801 259.791 70.8673 259.796C71.1905 263.46 71.3033 267.135 71.2084 270.799C70.9237 275.959 70.2851 281.096 69.2771 286.24C67.4074 295.786 64.6912 305.163 62.2111 314.563C57.0917 333.95 54.7244 353.783 53.8088 373.781C53.5497 379.433 53.4266 385.094 53.3343 390.751C53.2881 393.498 53.2548 396.243 53.2266 398.991C53.2138 400.405 53.2009 401.818 53.1881 403.234C53.1804 403.895 53.1342 404.571 53.1778 405.229C53.1881 405.393 53.2112 405.544 53.2394 405.692C53.2368 405.697 53.2343 405.703 53.2317 405.71C50.5489 409.359 48.5048 413.569 46.7145 417.71C44.8833 421.94 43.3264 426.288 42.1235 430.738C40.9181 435.196 40.0435 439.698 39.2022 444.235C38.4995 448.018 37.6839 452.209 34.76 454.965C32.5517 457.044 29.4739 458.445 26.8655 460.132C23.8904 462.058 21.2255 464.411 20.0534 467.852C19.2378 470.239 19.6328 472.977 22.0488 474.226C24.1289 475.301 27.0784 475.219 29.3636 475.114C34.1932 474.889 38.8919 473.583 43.5188 472.272C48.6048 470.83 53.6446 469.514 58.9589 469.371C61.6212 469.299 64.3117 469.425 66.9431 469.84C69.6772 470.267 72.2985 471.179 75.0197 471.614C75.9251 471.763 76.8305 471.571 77.4332 470.956C79.1644 475.842 80.157 481.165 84.1248 484.932C87.1769 487.826 91.5165 489.303 95.7048 489.06C97.9644 488.927 100.109 488.376 102.145 487.388C103.12 486.914 103.999 486.302 104.843 485.623C105.361 485.209 105.723 484.761 105.974 484.264C106.733 483.803 107.482 483.327 108.221 482.837C112.399 489.039 116.552 495.292 121.217 501.123C126.495 507.719 132.869 513.115 140.812 516.193C148.217 519.061 156.409 519.626 164.265 518.958C172.554 518.251 180.7 516.369 188.648 513.967C192.531 512.795 196.563 511.711 200.246 509.988C204.178 508.15 206.899 504.913 207.823 500.652C208.731 496.463 208.623 491.984 208.654 487.721C208.684 483.321 208.577 478.912 208.279 474.523C208.277 474.51 208.277 474.5 208.277 474.487C209.723 475.071 211.295 475.381 212.847 475.46C214.406 475.54 216.027 475.342 217.489 474.784C219.233 474.121 221.644 473.028 221.962 470.956C222.011 470.654 222.014 470.334 221.975 470.019C223.037 470.467 224.094 470.928 225.135 471.412C228.398 472.923 231.65 474.464 234.851 476.1C236.451 476.917 238.023 477.816 239.649 478.582C240.085 478.786 240.524 479.014 240.968 479.245C242.586 480.323 244.189 481.424 245.784 482.546C250.296 485.718 254.753 488.965 259.285 492.104C263.946 495.333 268.696 498.522 273.864 500.888C279.168 503.318 284.805 504.864 290.681 504.647C296.952 504.416 303.064 502.647 309.102 501.092C312.118 500.319 315.134 499.543 318.15 498.767C318.571 498.954 319.081 498.926 319.507 498.509C319.548 498.468 319.589 498.427 319.63 498.386C320.064 498.276 320.497 498.163 320.93 498.053C321.12 497.792 321.305 497.525 321.492 497.262C324.808 495.7 327.586 492.891 329.694 489.774C329.853 489.639 330.015 489.508 330.171 489.37C333.901 486.102 336.783 482.049 338.72 477.493C342.59 468.388 342.806 458.091 341.752 448.391" fill="black"/>
<path fill-rule="evenodd" clip-rule="evenodd" d="M215.815 112.693C214.864 97.1179 209.803 79.4594 194.907 71.8122C162.068 58.6517 118.891 91.7936 116.605 125.651C115.808 137.24 122.252 149.904 134.028 153.126C136.646 156.59 140.606 158.706 144.514 160.541C191.062 184.657 221.129 165.054 215.815 112.693V112.693Z" fill="white"/>
<path fill-rule="evenodd" clip-rule="evenodd" d="M226.419 103.005C224.774 98.4423 223.036 93.9151 221.208 89.4229C219.428 85.0509 217.82 80.5844 215.609 76.4196C202.404 51.5449 178.391 51.5449 165.978 54.7951C159.541 52.0257 147.485 52.8069 140.782 55.3059C129.931 59.3516 116.704 75.2666 112.182 82.417C102.197 98.2044 95.9653 119.217 102.598 137.46C103.465 139.845 104.57 142.053 105.815 144.181C105.031 145.242 104.129 146.247 103.129 147.235C100.158 150.17 97.1868 153.009 94.6202 156.319C92.0698 159.609 89.9554 163.108 88.3814 166.965C85.4134 174.24 85.2704 182.477 89.1943 189.418C92.6082 195.458 98.6557 199.955 105.469 200.384C105.819 200.433 106.169 200.478 106.521 200.513C107.424 201.998 108.525 203.365 109.781 204.557C113.63 208.213 122.805 210.088 128.039 210.208C128.307 210.424 128.578 210.639 128.849 210.852C132.051 213.368 135.411 215.907 139.087 217.698C141.577 218.912 144.842 219.926 147.44 219.05C148.618 219.836 150.552 219.671 151.72 219.027C153.641 217.971 155.203 216.068 156.154 214.12C158.458 209.39 157.904 204.214 157.312 199.161C156.66 193.579 156.033 187.995 155.396 182.414C154.897 178.049 154.376 173.612 153.047 169.408C152.36 167.23 151.46 165.136 150.296 163.168C150.326 163.003 150.321 162.838 150.273 162.682C149.892 161.445 149.105 160.797 148.172 159.956C148.052 159.848 147.931 159.738 147.813 159.625C147.347 159.094 146.848 158.601 146.314 158.183C146.108 157.975 145.905 157.765 145.702 157.554C144.014 155.789 142.42 153.933 141.003 151.945C139.629 150.017 138.387 148.004 137.206 145.953C136.005 143.867 135.21 141.566 134.012 139.495C133.909 139.318 133.648 139.283 133.503 139.43C133.132 139.813 132.893 140.239 132.938 140.687L132.753 140.715C132.683 140.039 132.058 139.488 131.211 139.636C129.942 139.856 128.899 139.939 127.8 139.518C127.993 138.238 128.172 136.956 128.347 135.672C128.668 133.308 128.966 130.937 129.222 128.565C129.842 128.713 130.456 128.926 131.058 129.196C131.915 129.58 132.725 130.095 133.417 130.729C134.099 131.355 134.571 132.199 135.403 132.634C136.361 133.133 137.517 132.309 137.236 131.227C136.667 129.041 133.445 127.789 131.451 127.376C130.767 127.233 130.067 127.173 129.368 127.188C129.526 125.666 129.666 124.143 129.781 122.618C129.837 121.897 129.887 121.176 129.934 120.452C131.484 119.984 133.144 119.844 134.756 120.064C135.288 120.488 135.82 120.906 136.334 121.329C137.966 122.676 139.591 124.031 141.196 125.41C141.341 125.533 141.484 125.656 141.63 125.781C142.583 126.6 143.771 125.789 143.611 124.629C142.302 115.129 148.129 107.572 154.953 101.718C162.505 95.2347 176.237 94.4798 185.219 83.2506C189.356 84.0913 198.592 86.5884 202.404 92.6531C207.74 101.152 207.043 108.766 207.449 118.407C207.855 128.055 208.888 138.118 206.694 147.631C204.671 156.402 199.191 163.897 190.691 167.342C190.48 167.428 190.267 167.51 190.054 167.59C185.658 169.245 180.861 169.714 176.237 168.842C171.119 167.876 166.846 165.537 162.588 162.66C162.342 162.497 161.984 162.833 162.169 163.078C167.781 170.505 178.805 172.986 187.549 171.026C187.957 170.933 188.364 170.833 188.767 170.723C186.812 176.339 187.205 182.504 189.753 187.973C191.285 191.263 193.622 194.11 196.468 196.356C199.605 198.83 203.497 200.828 205.674 204.301C207.667 207.484 207.075 211.06 203.663 212.898C202.802 213.363 202.471 214.868 203.324 215.529C203.65 215.78 203.976 216.035 204.309 216.286C206.22 217.725 211.469 220.43 212.319 220.53C219.867 221.424 224.942 215.89 228.194 209.362C232.013 201.7 231.02 192.362 226.813 185.066C223.437 179.211 216.79 173.442 219.433 166.033C220.376 163.386 222.304 161.13 224.177 159.092C226.314 156.77 228.611 154.597 230.659 152.193C232.695 149.807 234.501 147.21 235.509 144.215C236.981 139.838 236.249 135.106 235.143 130.736C232.773 121.356 229.696 112.102 226.419 103.005Z" fill="black"/>
<path fill-rule="evenodd" clip-rule="evenodd" d="M184.141 151.974C182.455 151.288 180.951 150.142 179.851 148.679C179.469 148.17 179.37 147.633 179.45 147.142C179.54 146.59 179.867 146.089 180.314 145.753C180.762 145.416 181.322 145.25 181.863 145.335C182.334 145.408 182.802 145.666 183.173 146.199L183.25 146.306C183.904 147.189 184.756 147.914 185.726 148.381C186.662 148.831 187.708 149.041 188.791 148.919C190.853 148.686 192.274 147.572 193.785 146.06C193.973 145.869 194.16 145.672 194.348 145.472C194.467 145.291 194.632 145.174 194.815 145.113C195.019 145.045 195.249 145.049 195.46 145.122C195.663 145.193 195.845 145.327 195.967 145.506C196.082 145.676 196.148 145.886 196.127 146.127C195.988 147.694 195.168 149.093 194.002 150.191C192.708 151.411 190.992 152.255 189.376 152.551C187.596 152.877 185.783 152.643 184.141 151.974V151.974ZM190.216 127.796C192.109 128.945 194.995 131.625 192.958 134.475C190.56 136.987 187.107 134.107 185.406 132.804C183.829 131.794 182.056 134.391 183.52 135.57C195.813 144.658 200.802 128.097 191.174 126.445C190.113 126.263 189.72 127.44 190.216 127.796ZM168.186 117.224C168.396 114.631 172.351 114.042 172.744 116.608C173.097 118.907 172.682 121.018 171.645 123.088C170.654 125.065 168.164 124.143 167.976 122.342C167.723 119.929 168.056 118.837 168.186 117.224ZM198.293 116.076C198.845 115.355 199.641 114.862 200.595 115.141C203.575 116.01 202.697 120.235 201.65 122.292C201.081 123.409 199.243 123.692 198.412 122.708C197.058 121.105 196.41 117.903 198.131 116.323C198.178 116.241 198.23 116.159 198.293 116.076ZM171.603 105.877L172.074 105.795C173.53 105.543 175.341 105.301 176.371 106.471C176.917 107.091 177.106 108.243 176.371 108.836C175.079 109.88 173.651 109.476 172.103 109.564C170.827 109.637 169.601 109.848 168.372 110.199C165.675 110.968 163.479 112.373 161.176 113.916C160.874 114.118 160.565 113.732 160.709 113.45C162.039 110.85 164.615 108.714 167.195 107.413C168.572 106.718 170.079 106.141 171.603 105.877ZM195.577 104.712L195.937 104.786C199.858 105.604 204.953 107.239 206.81 111.085C206.88 111.629 206.806 111.746 206.745 111.822L206.725 111.847C206.674 111.912 206.634 112.002 206.398 112.076C206.333 112.06 206.267 112.044 206.2 112.026C205.349 111.803 204.675 111.497 204.023 111.178L203.316 110.83C202.496 110.429 201.669 110.042 200.792 109.756C198.921 109.147 196.996 108.718 195.042 108.488C194.618 108.439 194.21 108.296 193.888 108.051C193.583 107.819 193.35 107.497 193.243 107.07C193.105 106.517 193.145 106.098 193.442 105.599C193.666 105.224 193.985 104.965 194.353 104.815C194.727 104.663 195.153 104.627 195.577 104.712Z" fill="black"/>
</svg>
